<svg width="45" height="45" viewBox="0 0 45 45" fill="none" xmlns="http://www.w3.org/2000/svg">
<path d="M40 0H5C3.67392 0 2.40215 0.526784 1.46447 1.46447C0.526784 2.40215 0 3.67392 0 5V40C0 41.3261 0.526784 42.5979 1.46447 43.5355C2.40215 44.4732 3.67392 45 5 45H40C41.3261 45 42.5979 44.4732 43.5355 43.5355C44.4732 42.5979 45 41.3261 45 40V5C45 3.67392 44.4732 2.40215 43.5355 1.46447C42.5979 0.526784 41.3261 0 40 0ZM31.5 35L22.5 26L13.5 35L10 31.5L19 22.5L10 13.5L13.5 10L22.5 19L31.5 10L35 13.5L26 22.5L35 31.5L31.5 35Z" fill="#F62C37"/>
</svg>
