  <svg
          version="1.1"
          xmlns="http://www.w3.org/2000/svg"
          x="0px"
          y="0px"
          width="200px"
          height="80px"
          viewBox="0 0 200 80"
          fill="#FFFFFF"
        >
          <g>
            <path
              fill="#FFFFFF"
              d="M175.825,37.442c0,0.792,0,1.583,0,2.375c0,1.063-0.005,2.127,0.003,3.191
		c0.005,0.664,0.399,1.05,1.063,1.061c0.284,0.005,0.567,0.004,0.852,0c0.683-0.01,1.071-0.394,1.078-1.082
		c0.005-0.709-0.009-1.418,0.004-2.127c0.023-1.276-0.078-2.553,0.058-3.827c0.244-2.332,2.768-3.816,4.936-2.919
		c0.324,0.135,0.465,0.315,0.463,0.687c-0.018,1.96-0.01,3.924-0.008,5.885c0,0.746-0.007,1.491,0.003,2.234
		c0.005,0.745,0.405,1.143,1.137,1.149c0.31,0.004,0.616,0.009,0.924-0.005c0.432-0.018,0.783-0.284,0.907-0.672
		c0.07-0.216,0.079-0.441,0.079-0.667c0-2.659,0.005-5.318-0.005-7.978c-0.003-0.305,0.1-0.481,0.381-0.594
		c0.993-0.399,1.98-0.43,2.954,0.046c1.407,0.692,2.112,1.839,2.121,3.404c0.008,1.785-0.001,3.57,0.003,5.354
		c0.003,0.699,0.406,1.1,1.1,1.11c0.273,0.005,0.545,0.004,0.815,0c0.701-0.01,1.079-0.375,1.081-1.07
		c0.004-1.926,0.03-3.854-0.009-5.779c-0.042-2.025-0.905-3.701-2.492-4.922c-2.203-1.693-4.616-1.905-7.138-0.723
		c-0.218,0.101-0.398,0.132-0.63,0.019c-2.151-1.051-4.28-1.012-6.377,0.168c-0.166,0.093-0.271,0.158-0.328-0.124
		c-0.108-0.52-0.45-0.768-0.992-0.78c-0.271-0.004-0.545-0.002-0.815,0c-0.822,0.003-1.167,0.344-1.167,1.159
		C175.823,33.826,175.825,35.633,175.825,37.442z M127.972,37.468c0-0.708,0-1.417,0-2.127c0-1.062,0-2.126,0-3.189
		c-0.001-0.924-0.37-1.296-1.281-1.298c-0.166,0-0.332,0-0.496,0c-0.913,0.002-1.282,0.372-1.282,1.297
		c-0.003,1.796,0.008,3.593-0.005,5.388c-0.013,1.832-1.476,3.368-3.329,3.523c-1.777,0.147-3.468-1.128-3.812-2.872
		c-0.057-0.281-0.075-0.561-0.075-0.845c0.001-1.726,0-3.45,0-5.175c0-0.95-0.362-1.316-1.299-1.316c-0.142,0-0.283,0-0.426,0
		c-0.966,0-1.333,0.361-1.335,1.319c-0.003,1.714-0.01,3.428,0.003,5.14c0.008,1.138,0.222,2.235,0.786,3.237
		c1.24,2.196,3.109,3.396,5.646,3.526c1.263,0.063,2.435-0.235,3.525-0.868c0.161-0.093,0.278-0.147,0.372,0.101
		c0.222,0.587,0.499,0.766,1.123,0.771c0.201,0.003,0.403,0.001,0.604,0c0.92-0.002,1.28-0.363,1.281-1.294
		C127.972,41.013,127.972,39.24,127.972,37.468z M58.8,44.077c1.32,0.035,2.516-0.355,3.617-1.062
		c0.651-0.418,0.746-1.073,0.245-1.657c-0.124-0.145-0.262-0.273-0.396-0.406c-0.675-0.673-0.984-0.727-1.817-0.297
		c-2.544,1.315-5.352-0.705-5.262-3.281c0.09-2.581,2.818-4.291,5.141-3.162c1.059,0.514,1.221,0.487,2.065-0.359
		c0.1-0.1,0.204-0.198,0.293-0.308c0.481-0.584,0.372-1.219-0.269-1.627c-1.435-0.917-2.994-1.237-4.676-0.994
		c-2.953,0.426-5.366,3.01-5.589,5.993C51.858,40.81,54.889,44.073,58.8,44.077z M152.825,44.071
		c1.348,0.002,2.542-0.345,3.62-1.052c0.676-0.445,0.77-1.07,0.236-1.678c-0.177-0.203-0.372-0.396-0.574-0.578
		c-0.482-0.441-0.869-0.485-1.451-0.178c-1.71,0.901-3.477,0.543-4.699-0.951c-1.167-1.428-0.914-3.767,0.534-4.91
		c1.293-1.022,2.673-1.151,4.135-0.39c0.621,0.322,1.027,0.266,1.537-0.221c0.194-0.187,0.395-0.376,0.566-0.586
		c0.47-0.573,0.36-1.203-0.263-1.6c-1.41-0.901-2.943-1.233-4.604-1.006c-3.029,0.413-5.501,3.066-5.669,6.104
		C145.98,40.88,148.978,44.062,152.825,44.071z M130.795,37.469c0,0.2,0,0.401,0,0.603c0,1.593-0.004,3.188,0,4.784
		c0.001,0.835,0.382,1.219,1.205,1.224c0.188,0.001,0.378,0.001,0.566,0c0.917-0.002,1.286-0.369,1.286-1.293
		c0.002-1.734,0-3.472,0.002-5.208c0-0.247-0.002-0.495,0.048-0.741c0.49-2.48,3.112-3.7,5.349-2.489
		c0.647,0.351,1.072,0.293,1.597-0.221c0.186-0.182,0.376-0.361,0.547-0.555c0.448-0.511,0.371-1.186-0.191-1.572
		c-1.404-0.966-2.965-1.301-4.647-1.098c-0.843,0.101-1.627,0.388-2.364,0.808c-0.136,0.077-0.305,0.221-0.381-0.061
		c-0.175-0.62-0.614-0.825-1.211-0.799c-0.178,0.007-0.354,0.001-0.531,0.001c-0.897,0.003-1.273,0.373-1.273,1.269
		C130.791,33.902,130.795,35.685,130.795,37.469z M141.406,44.068c0.83-0.002,1.487-0.648,1.503-1.478
		c0.016-0.798-0.711-1.52-1.521-1.513c-0.809,0.007-1.516,0.725-1.508,1.529C139.892,43.408,140.582,44.069,141.406,44.068z"
            />
            <path
              d="M23.645,19.734c0.751,0.068,1.503,0.121,2.252,0.207
		c2.676,0.306,5.296,0.813,7.747,2.009c1.792,0.874,2.983,2.269,3.77,4.063c0.866,1.979,1.321,4.062,1.62,6.186
		c0.282,2.015,0.411,4.043,0.35,6.076c-0.099,3.294-0.456,6.553-1.589,9.677c-0.491,1.354-1.124,2.637-2.173,3.655
		c-0.896,0.87-1.992,1.432-3.144,1.882c-2.185,0.857-4.469,1.274-6.792,1.506c-0.657,0.068-1.312,0.134-1.969,0.198
		c-1.418,0-2.836,0-4.255,0c-0.367-0.104-0.748-0.094-1.121-0.125c-2.316-0.188-4.596-0.556-6.799-1.316
		c-1.121-0.389-2.197-0.874-3.155-1.585c-1.27-0.941-2.038-2.245-2.617-3.678c-1.179-2.919-1.606-5.994-1.755-9.106
		c-0.11-2.275-0.054-4.556,0.259-6.823c0.29-2.1,0.712-4.164,1.499-6.145c0.84-2.115,2.208-3.703,4.322-4.641
		c2.631-1.167,5.41-1.646,8.245-1.906c0.516-0.046,1.032-0.09,1.548-0.134C21.139,19.734,22.392,19.734,23.645,19.734z
		 M11.034,37.446c0,0.331-0.007,0.662,0.004,0.993c0.004,0.164,0.039,0.328,0.062,0.491c0.501,3.489,2.245,6.177,5.24,8.027
		c2.068,1.276,4.328,1.843,6.766,1.637c2.06-0.175,3.948-0.833,5.619-2.05c1.161-0.845,1.252-2.21,0.264-3.258
		c-0.388-0.413-0.801-0.804-1.201-1.205c-0.209-0.21-0.429-0.409-0.692-0.547c-0.827-0.429-1.586-0.22-2.352,0.209
		c-1.745,0.98-3.528,1-5.206-0.091c-1.724-1.12-2.524-2.771-2.289-4.848c0.307-2.712,3.108-4.758,5.79-4.273
		c0.736,0.134,1.379,0.465,2.028,0.811c0.888,0.475,1.832,0.355,2.527-0.304c0.49-0.464,0.97-0.937,1.429-1.429
		c0.958-1.028,0.852-2.381-0.284-3.2c-1.958-1.409-4.157-2.089-6.574-2.089c-3.176,0.001-5.855,1.181-8.039,3.447
		C12.074,31.899,10.993,34.459,11.034,37.446z"
            />
            <path
              d="M175.825,37.442c0-1.809-0.002-3.616,0-5.425
		c0-0.815,0.345-1.156,1.167-1.159c0.271-0.001,0.544-0.004,0.815,0c0.542,0.013,0.884,0.26,0.992,0.78
		c0.058,0.281,0.162,0.216,0.328,0.124c2.097-1.18,4.226-1.219,6.377-0.168c0.231,0.113,0.412,0.082,0.63-0.019
		c2.521-1.183,4.935-0.971,7.138,0.723c1.587,1.222,2.45,2.897,2.492,4.922c0.039,1.925,0.013,3.854,0.009,5.779
		c-0.002,0.695-0.38,1.061-1.081,1.07c-0.271,0.004-0.542,0.005-0.815,0c-0.693-0.011-1.097-0.411-1.1-1.11
		c-0.004-1.784,0.005-3.57-0.003-5.354c-0.009-1.565-0.714-2.712-2.121-3.404c-0.974-0.476-1.961-0.445-2.954-0.046
		c-0.281,0.112-0.384,0.289-0.381,0.594c0.01,2.66,0.005,5.319,0.005,7.978c0,0.226-0.009,0.451-0.079,0.667
		c-0.124,0.388-0.476,0.654-0.907,0.672c-0.308,0.014-0.614,0.009-0.924,0.005c-0.731-0.007-1.132-0.404-1.137-1.149
		c-0.01-0.743-0.003-1.488-0.003-2.234c-0.002-1.961-0.01-3.924,0.008-5.885c0.002-0.372-0.139-0.552-0.463-0.687
		c-2.168-0.897-4.691,0.587-4.936,2.919c-0.136,1.274-0.034,2.551-0.058,3.827c-0.013,0.709,0.001,1.418-0.004,2.127
		c-0.007,0.688-0.396,1.072-1.078,1.082c-0.284,0.004-0.567,0.005-0.852,0c-0.664-0.011-1.059-0.396-1.063-1.061
		c-0.008-1.064-0.003-2.128-0.003-3.191C175.825,39.025,175.825,38.233,175.825,37.442z"
            />
            <path
              d="M127.972,37.468c0,1.772,0,3.544,0,5.317
		c-0.001,0.931-0.361,1.292-1.281,1.294c-0.201,0.001-0.403,0.003-0.604,0c-0.624-0.006-0.901-0.185-1.123-0.771
		c-0.094-0.248-0.211-0.193-0.372-0.101c-1.091,0.633-2.263,0.932-3.525,0.868c-2.536-0.13-4.405-1.33-5.646-3.526
		c-0.564-1.002-0.778-2.099-0.786-3.237c-0.013-1.712-0.006-3.426-0.003-5.14c0.002-0.958,0.369-1.318,1.335-1.319
		c0.143,0,0.284,0,0.426,0c0.937,0,1.299,0.367,1.299,1.316c0,1.726,0.001,3.45,0,5.175c0,0.284,0.019,0.564,0.075,0.845
		c0.345,1.744,2.035,3.02,3.812,2.872c1.854-0.155,3.316-1.692,3.329-3.523c0.013-1.795,0.002-3.592,0.005-5.388
		c0-0.925,0.369-1.295,1.282-1.297c0.164,0,0.33,0,0.496,0c0.911,0.002,1.28,0.374,1.281,1.298c0,1.063,0,2.127,0,3.189
		C127.972,36.051,127.972,36.76,127.972,37.468z"
            />
            <path
              d="M58.8,44.078c-3.911-0.005-6.942-3.268-6.648-7.162
		c0.224-2.983,2.637-5.566,5.589-5.993c1.683-0.243,3.241,0.077,4.676,0.994c0.64,0.409,0.75,1.043,0.269,1.627
		c-0.09,0.11-0.194,0.208-0.293,0.308c-0.844,0.846-1.007,0.874-2.065,0.359c-2.323-1.129-5.051,0.582-5.141,3.162
		c-0.09,2.577,2.718,4.597,5.262,3.281c0.833-0.43,1.143-0.376,1.817,0.297c0.134,0.133,0.272,0.262,0.396,0.406
		c0.501,0.584,0.406,1.239-0.245,1.657C61.316,43.722,60.12,44.112,58.8,44.078z"
            />
            <path
              d="M152.825,44.071c-3.848-0.01-6.845-3.191-6.632-7.044
		c0.168-3.039,2.64-5.692,5.669-6.104c1.661-0.227,3.194,0.105,4.604,1.006c0.623,0.396,0.732,1.026,0.263,1.6
		c-0.172,0.21-0.372,0.399-0.566,0.586c-0.51,0.487-0.916,0.543-1.537,0.221c-1.462-0.761-2.842-0.632-4.135,0.39
		c-1.448,1.143-1.701,3.481-0.534,4.91c1.223,1.495,2.989,1.852,4.699,0.951c0.582-0.307,0.969-0.263,1.451,0.178
		c0.202,0.182,0.397,0.375,0.574,0.578c0.533,0.607,0.439,1.232-0.236,1.678C155.367,43.727,154.173,44.073,152.825,44.071z"
            />
            <path
              d="M130.795,37.469c0-1.784-0.004-3.567,0-5.351
		c0-0.896,0.376-1.266,1.273-1.269c0.177,0,0.354,0.006,0.531-0.001c0.597-0.026,1.036,0.179,1.211,0.799
		c0.076,0.281,0.245,0.138,0.381,0.061c0.737-0.42,1.521-0.707,2.364-0.808c1.683-0.203,3.243,0.132,4.647,1.098
		c0.562,0.386,0.64,1.062,0.191,1.572c-0.171,0.194-0.361,0.373-0.547,0.555c-0.524,0.514-0.949,0.572-1.597,0.221
		c-2.236-1.211-4.858,0.009-5.349,2.489c-0.05,0.246-0.048,0.494-0.048,0.741c-0.002,1.736,0,3.474-0.002,5.208
		c0,0.924-0.369,1.291-1.286,1.293c-0.188,0.001-0.378,0.001-0.566,0c-0.823-0.005-1.204-0.389-1.205-1.224
		c-0.004-1.596,0-3.19,0-4.784C130.795,37.87,130.795,37.669,130.795,37.469z"
            />
            <path
              d="M141.406,44.068c-0.824,0.001-1.515-0.66-1.525-1.461
		c-0.008-0.805,0.699-1.522,1.508-1.529c0.81-0.007,1.536,0.715,1.521,1.513C142.894,43.42,142.236,44.066,141.406,44.068z"
            />
            <path
              d="M95.639,33c0.001,0,0.002,0,0.002,0
		c0,0,0.004-2.464-0.002-3.87c-0.003-0.691-0.415-0.92-1.108-0.931c-0.272-0.004-0.543,0.08-0.815,0.086
		c-0.683,0.013-1.078,0.447-1.085,1.127c-0.008,0.696-0.012,1.414,0.001,2.111c0.007,0.309-0.064,0.352-0.329,0.198
		c-1.37-0.794-2.845-1.031-4.408-0.799c-3.39,0.504-5.953,3.861-5.527,7.244c0.481,3.816,3.818,6.37,7.634,5.84
		c3.137-0.434,5.6-3.562,5.634-6.725C95.651,35.97,95.639,34,95.639,33z M89.008,41.068c-1.973,0.004-3.618-1.616-3.643-3.588
		c-0.025-1.933,1.65-3.612,3.61-3.62c1.968-0.007,3.666,1.667,3.638,3.59C92.585,39.453,90.979,41.063,89.008,41.068z"
            />
            <path
              d="M104.131,30.923c-3.709,0.536-6.28,4.209-5.503,7.864
		c0.982,4.623,6.253,6.792,10.205,4.2c0.56-0.366,0.669-1.065,0.229-1.564c-0.233-0.266-0.489-0.513-0.753-0.75
		c-0.349-0.314-0.748-0.388-1.18-0.172c-0.127,0.064-0.252,0.128-0.38,0.19c-1.682,0.82-3.791,0.228-4.683-1.338
		c-0.19-0.334-0.174-0.353,0.206-0.353c1.405,0,2.812,0,4.217,0c1.406,0,2.812-0.012,4.218-0.017
		c0.636-0.003,1.062-0.416,1.097-1.021C112.052,33.667,108.394,30.306,104.131,30.923z M108.071,35.965
		c-1.934-0.011-3.868-0.004-5.802-0.006c-0.375,0-0.405-0.047-0.198-0.369c0.715-1.118,1.756-1.671,3.073-1.734
		c1.334,0.073,2.4,0.608,3.112,1.78C108.408,35.886,108.389,35.967,108.071,35.965z"
            />
            <path
              d="M72.85,30.853c-3.684-0.003-6.658,2.938-6.665,6.591c-0.008,3.676,2.961,6.634,6.657,6.634
		c3.689-0.001,6.632-2.932,6.634-6.608C79.479,33.798,76.53,30.854,72.85,30.853z M72.837,41.068c-1.988,0-3.595-1.612-3.595-3.604
		c0.001-1.992,1.604-3.601,3.595-3.605c1.964-0.005,3.626,1.649,3.625,3.606C76.461,39.426,74.811,41.066,72.837,41.068z"
            />
            <path
              d="M167.263,30.86c-3.834-0.209-6.926,2.785-7.021,6.402
		c-0.104,3.869,2.959,6.613,6.225,6.81c3.821,0.229,7.055-2.8,7.06-6.578C173.544,33.849,170.623,31.042,167.263,30.86z
		 M166.897,41.074c-2.019,0.001-3.619-1.602-3.617-3.622c0.003-1.987,1.622-3.604,3.609-3.599c1.977,0.005,3.619,1.641,3.619,3.609
		C170.512,39.435,168.871,41.072,166.897,41.074z"
            />
          </g>
        </svg>