<svg width="24" height="24" viewBox="0 0 24 24" fill="none" xmlns="http://www.w3.org/2000/svg">
<path fill-rule="evenodd" clip-rule="evenodd" d="M3.22716 5.45432C3.81784 5.45432 4.38433 5.21967 4.802 4.802C5.21967 4.38433 5.45432 3.81784 5.45432 3.22716C5.45432 2.63648 5.21967 2.06999 4.802 1.65232C4.38433 1.23465 3.81784 1 3.22716 1C2.63648 1 2.06999 1.23465 1.65232 1.65232C1.23465 2.06999 1 2.63648 1 3.22716C1 3.81784 1.23465 4.38433 1.65232 4.802C2.06999 5.21967 2.63648 5.45432 3.22716 5.45432ZM4.34074 22.158C5.22676 22.158 6.07649 21.8061 6.703 21.1795C7.32951 20.553 7.68148 19.7033 7.68148 18.8173C7.68148 17.9313 7.32951 17.0815 6.703 16.455C6.07649 15.8285 5.22676 15.4765 4.34074 15.4765C3.45472 15.4765 2.60499 15.8285 1.97848 16.455C1.35197 17.0815 1 17.9313 1 18.8173C1 19.7033 1.35197 20.553 1.97848 21.1795C2.60499 21.8061 3.45472 22.158 4.34074 22.158ZM19.9309 23.2716C20.8169 23.2716 21.6666 22.9196 22.2931 22.2931C22.9196 21.6666 23.2716 20.8169 23.2716 19.9309C23.2716 19.0448 22.9196 18.1951 22.2931 17.5686C21.6666 16.9421 20.8169 16.5901 19.9309 16.5901C19.0448 16.5901 18.1951 16.9421 17.5686 17.5686C16.9421 18.1951 16.5901 19.0448 16.5901 19.9309C16.5901 20.8169 16.9421 21.6666 17.5686 22.2931C18.1951 22.9196 19.0448 23.2716 19.9309 23.2716ZM11.0222 14.363C12.2036 14.363 13.3366 13.8937 14.1719 13.0583C15.0072 12.223 15.4765 11.09 15.4765 9.90864C15.4765 8.72728 15.0072 7.59431 14.1719 6.75896C13.3366 5.92361 12.2036 5.45432 11.0222 5.45432C9.84086 5.45432 8.70789 5.92361 7.87254 6.75896C7.03719 7.59431 6.5679 8.72728 6.5679 9.90864C6.5679 11.09 7.03719 12.223 7.87254 13.0583C8.70789 13.8937 9.84086 14.363 11.0222 14.363ZM17.7037 5.45432C18.2944 5.45432 18.8609 5.21967 19.2785 4.802C19.6962 4.38433 19.9309 3.81784 19.9309 3.22716C19.9309 2.63648 19.6962 2.06999 19.2785 1.65232C18.8609 1.23465 18.2944 1 17.7037 1C17.113 1 16.5465 1.23465 16.1289 1.65232C15.7112 2.06999 15.4765 2.63648 15.4765 3.22716C15.4765 3.81784 15.7112 4.38433 16.1289 4.802C16.5465 5.21967 17.113 5.45432 17.7037 5.45432Z" fill="white" stroke="white" stroke-linecap="round" stroke-linejoin="round"/>
<path d="M4.89746 4.89771L7.12462 7.12487M15.4765 5.4545L14.3629 6.56808M17.7036 17.4255L14.3629 13.2496M6.56783 16.0335L8.79499 13.8063" stroke="white" stroke-linecap="round" stroke-linejoin="round"/>
</svg>
