<?xml version="1.0" encoding="iso-8859-1"?>
<svg version="1.1" xmlns="http://www.w3.org/2000/svg" xmlns:xlink="http://www.w3.org/1999/xlink" x="0px" y="0px" width="220px"
	 height="430px" viewBox="0 0 220 430" style="enable-background:new 0 0 220 430;" xmlSpace="preserve">


<g id="Layer_4">

	<path style="stroke:#000000;stroke-miterlimit:10;" d="M-1388.771,507.549l-4.897-123.759c-0.084-2.096-1.865-3.789-3.961-3.767
		l-37.837,0.389c-2.094,0.021-4.793,1.443-5.993,3.157l-50.744,73.435c-1.203,1.716-2.257,1.725-2.345-0.368l-1.713-37.324
		c0,0,0.058-2.812-1.847-2.812h-8.808c-1.549,0-2.761,2.975-2.761,2.975l-27.265,35.089c-1.294,1.644-2.358,1.268-2.366-0.827
		l-0.659-72.376c-0.022-2.097-2.269-5.86-4.362-5.86h-76.573c-4.286,0-5.556,1.489-7.511,3.691l-13.119,14.861
		c-2.779,3.269-2.62,8.448,2.379,8.448h34.999c1.799,0,2.62,3.046,1.713,4.52l-41.24,59.003c0,0-18.151,27.834-31.338,21.887
		c-5.245-2.369-5.554-9.568,3.016-19.565l23.487-29.356c1.286-1.654,0.501-3.488-1.592-3.488h-21.85
		c-2.902,0-3.353,0.477-4.412,1.782l-28.107,34.032c-8.789,11.521-5.695,24.965,6.553,33.096
		c13.936,9.246,45.191,13.302,65.238-9.521l0.545-0.225c1.002-0.99,3.314-1.591,5.409-1.598l53.681-0.042
		c2.095-0.004,3.886,1.754,3.904,3.85l0.126,10.933c0.02,2.092,1.762,3.832,3.856,3.842l13.176,0.064
		c2.095,0.01,4.869-1.331,6.16-2.98l21.927-28.05c1.289-1.653,2.342-1.289,2.339,0.808l-0.029,26.391
		c-0.004,2.096,1.709,3.808,3.802,3.806l19.154-0.019c2.095-0.002,4.756-1.432,5.913-3.178l8.202-12.375
		c1.159-1.746,3.821-3.179,5.914-3.186l53.167-0.154c2.095-0.007,3.818,1.704,3.83,3.797l0.059,11.055
		c0.012,2.095,1.736,3.804,3.828,3.797l25.295-0.063C-1390.333,511.359-1388.688,509.642-1388.771,507.549z M-1573.077,476.052
		l-41.38,0.1c-2.094,0.007-2.87-1.423-1.718-3.174l21.725-33.124c1.148-1.753,3.03-4.62,4.179-6.372l18.267-27.857
		c1.151-1.752,2.104-1.471,2.121,0.625l0.237,26.555c0.017,2.094,0.049,5.521,0.065,7.617l0.278,31.812
		C-1569.285,474.329-1570.983,476.048-1573.077,476.052z M-1425.262,475.627l-41.383,0.099c-2.092,0.004-2.867-1.425-1.719-3.176
		l44.176-67.353c1.149-1.752,2.104-1.47,2.123,0.624l0.577,65.988C-1421.47,473.904-1423.168,475.623-1425.262,475.627z"/>
	
		<text transform="matrix(0 -1.1028 1 0 -1353.3643 510.7988)" style="stroke:#000000;stroke-miterlimit:10; font-family:'Papyrus'; font-size:27.9236; letter-spacing:1.814;">DESIGN</text>
	<path style="fill:none;stroke:#000000;stroke-width:15;stroke-miterlimit:10;" d="M-1348.284,352.5
		c11.211,0,19.784,9.148,19.784,21.232v142.221c0,12.084-8.573,22.547-19.784,22.547h-365.361
		c-11.211,0-20.854-10.463-20.854-22.547V373.732c0-12.084,9.644-21.232,20.854-21.232H-1348.284z"/>

	
	<path style="stroke:#000000;stroke-miterlimit:10;" d="M-1584.347,117.729l123.758-4.897c2.096-0.084,3.789-1.865,3.768-3.961
		l-0.389-37.837c-0.021-2.094-1.443-4.793-3.157-5.993l-73.435-50.744c-1.716-1.203-1.725-2.257,0.368-2.345l37.223-1.713
		c0,0,2.711,0.058,2.711-1.847v-8.808c0-1.549-2.873-2.761-2.873-2.761l-35.039-27.265c-1.644-1.294-1.243-2.358,0.853-2.366
		l72.288-0.659c2.096-0.022,5.771-2.269,5.771-4.362v-76.573c0-4.286-1.389-5.556-3.59-7.511l-14.912-13.119
		c-3.268-2.779-8.498-2.62-8.498,2.379v34.999c0,1.799-2.945,2.62-4.418,1.713l-58.954-41.24c0,0-27.809-18.151-21.861-31.338
		c2.369-5.245,9.581-5.554,19.578,3.016l29.262,23.487c1.654,1.286,3.394,0.501,3.394-1.592v-21.85c0-2.902-0.375-3.353-1.682-4.412
		l-33.981-28.107c-11.521-8.789-24.939-5.695-33.07,6.553c-9.246,13.936-13.29,45.191,9.532,65.238l0.232,0.545
		c0.988,1.002,1.594,3.314,1.601,5.409l0.044,53.681c0.004,2.095-1.754,3.886-3.85,3.904l-10.934,0.126
		c-2.092,0.02-3.831,1.762-3.841,3.856l-0.064,13.176c-0.01,2.095,1.33,4.869,2.98,6.16l28.051,21.927
		c1.652,1.289,1.288,2.342-0.809,2.339l-26.391-0.029c-2.096-0.004-3.808,1.709-3.807,3.802l0.02,19.154
		c0.002,2.095,1.432,4.756,3.178,5.913l12.375,8.202c1.746,1.159,3.179,3.821,3.186,5.914l0.154,53.167
		c0.008,2.095-1.703,3.818-3.797,3.83l-11.055,0.059c-2.095,0.012-3.805,1.736-3.797,3.828l0.062,25.295
		C-1588.157,116.167-1586.44,117.812-1584.347,117.729z M-1552.85-66.577l-0.101-41.38c-0.007-2.094,1.424-2.87,3.174-1.718
		l33.125,21.725c1.752,1.148,4.619,3.03,6.371,4.179l27.857,18.267c1.752,1.151,1.471,2.104-0.625,2.121l-26.555,0.237
		c-2.094,0.017-5.521,0.049-7.617,0.065l-31.811,0.278C-1551.127-62.785-1552.846-64.483-1552.85-66.577z M-1552.425,81.238
		l-0.1-41.383c-0.004-2.092,1.426-2.867,3.177-1.719l67.353,44.176c1.752,1.149,1.471,2.104-0.624,2.123l-65.988,0.577
		C-1550.702,85.03-1552.421,83.332-1552.425,81.238z"/>
	
	<path style="fill:none;stroke:#000000;stroke-width:15;stroke-miterlimit:10;" d="M-1427.5,158.216
		c0,11.211-8.648,20.284-20.732,20.284h-142.221c-12.084,0-23.047-9.073-23.047-20.284v-365.361
		c0-11.211,10.963-20.354,23.047-20.354h142.221c12.084,0,20.732,9.144,20.732,20.354V158.216z"/>
	
	<g>
		<path d="M-2077,1472.846c0,18.1-21.61,33.154-48.027,33.154h-411.355c-26.418,0-47.617-15.055-47.617-33.154V971.42
			c0-18.1,21.199-32.42,47.617-32.42h411.355c26.417,0,48.027,14.32,48.027,32.42V1472.846z"/>
		<g>
			<g>
				<g>
					<g>
						<path style="fill:#212D20;" d="M-2077.861,1472.846c0.086,1.094,0.281,0.476,0.243-2.542l-0.331-2.145L-2077.861,1472.846z"/>
						<path style="fill:#212D20;" d="M-2077.248,1452.537c-0.16-3.548-0.442-7.643-0.746-5.344c0.318,3.515,0.186,4.365,0.564,8.15
							c0.039,3.023-0.106,5.272-0.228,4.764c0.085,1.067-0.073,4.692,0.135,6.316c0.257-3.929,0.267-8.908,0.056-14.107
							C-2077.396,1451.199-2077.309,1452.283-2077.248,1452.537z"/>
						<path style="fill:#212D20;" d="M-2076.731,1157.422l-0.04,1.901C-2076.749,1158.804-2076.737,1158.151-2076.731,1157.422z"/>
						<path style="fill:#212D20;" d="M-2076.55,974.572c0.008,1.393,0.041,1.973,0.07,2.044
							C-2076.501,975.323-2076.521,974.263-2076.55,974.572z"/>
						<path style="fill:#212D20;" d="M-2090.531,947.486c0.551,0.406,1.015,0.749,1.516,1.118
							C-2089.579,948.16-2090.159,947.724-2090.531,947.486z"/>
						<path style="fill:#212D20;" d="M-2076.731,1157.422l0.104-4.885C-2076.735,1152.194-2076.708,1155.041-2076.731,1157.422z"/>
						<path style="fill:#212D20;" d="M-2078.046,1411.842c0.016,1.022,0.047,1.874,0.087,2.653
							c-0.012-0.841-0.023-1.652-0.035-2.493C-2078.012,1411.958-2078.027,1411.92-2078.046,1411.842z"/>
						<path style="fill:#212D20;" d="M-2076.463,1238.027l0,1.486c0.038,0.437,0.083,0.846,0.135,1.232L-2076.463,1238.027z"/>
						<path style="fill:#212D20;" d="M-2076.413,1299.887c0.012-1.397-0.269-1.884-0.392-2.42c0.116,0.79,0.171,1.823,0.193,3.051
							C-2076.558,1300.539-2076.494,1300.357-2076.413,1299.887z"/>
						<path style="fill:#212D20;" d="M-2076.907,1397.977l0.039,1.741C-2076.878,1399.265-2076.896,1398.502-2076.907,1397.977z"/>
						<path style="fill:#212D20;" d="M-2076.402,1193.751c0.042-0.104,0.078-0.325,0.1-0.563
							C-2076.337,1193.188-2076.371,1193.409-2076.402,1193.751z"/>
						<path style="fill:#212D20;" d="M-2132.872,1504.3c-0.05,0.02,0.022,0.032,0.005,0.05
							C-2132.507,1504.321-2132.396,1504.301-2132.872,1504.3z"/>
						<path style="fill:#212D20;" d="M-2077.123,1472.846l-0.021,0.998c0.049,0.107,0.098,0.222,0.149,0.225L-2077.123,1472.846z"/>
						<path style="fill:#212D20;" d="M-2146.364,937.276c0.11,0.002,0.149,0.003,0.254,0.005
							C-2144.607,937.25-2145.458,937.256-2146.364,937.276z"/>
						<path style="fill:#212D20;" d="M-2585.378,1042.039c0.251-5.94,0.323,9.671,0.602,0.724
							C-2584.886,1043.598-2585.214,1034.634-2585.378,1042.039z"/>
						<path style="fill:#212D20;" d="M-2078.009,1410.239c-0.001-0.834-0.002-1.686-0.003-2.536
							C-2078.011,1408.858-2078.01,1409.637-2078.009,1410.239z"/>
						<path style="fill:#212D20;" d="M-2584.776,1042.763h0.003l0.026-0.923
							C-2584.759,1042.222-2584.766,1042.437-2584.776,1042.763z"/>
						<path style="fill:#212D20;" d="M-2278.009,937.445c0.271,0.05,0.796,0.087,1.343,0.123
							C-2276.71,937.539-2277.015,937.504-2278.009,937.445z"/>
						<path style="fill:#212D20;" d="M-2179.936,937.846l-2.426-0.038C-2181.4,937.822-2180.621,937.835-2179.936,937.846z"/>
						<path style="fill:#212D20;" d="M-2328.928,937.842c-1.32-0.021-1.768-0.061-3.569-0.022c0.166,0.011,0.332,0.021,0.547,0.034
							C-2331.298,937.815-2330.431,937.797-2328.928,937.842z"/>
						<path style="fill:#212D20;" d="M-2381.929,937.844c0.282,0.017,0.652,0.038,0.978,0.057c0.525-0.005,1.139-0.01,1.68-0.016
							L-2381.929,937.844z"/>
						<path style="fill:#212D20;" d="M-2293.943,1504.435c1.161,0.079,1.885,0.167,2.448,0.253
							C-2292.313,1504.487-2284.526,1504.416-2293.943,1504.435z"/>
						<path style="fill:#212D20;" d="M-2077.888,1411.814c-0.071-0.31-0.106-0.763-0.121-1.575c0.005,0.608,0.01,1.194,0.015,1.763
							C-2077.952,1412.157-2077.913,1412.19-2077.888,1411.814z"/>
						<path style="fill:#212D20;" d="M-2331.083,940.06l-8.422-0.042C-2337.15,940.029-2334.089,940.045-2331.083,940.06z"/>
						<path style="fill:#212D20;" d="M-2583.07,1398.92l0.033,1.934C-2583.03,1400.108-2583.039,1399.423-2583.07,1398.92z"/>
						<path style="fill:#212D20;" d="M-2364.494,940.06c-1.503-0.099-3.095-0.157-4.741-0.194c-0.348,0.021-0.746,0.04-0.978,0.072
							L-2364.494,940.06z"/>
						<path style="fill:#212D20;" d="M-2291.479,1504.69c-0.017-0.001-0.017-0.003-0.017-0.003S-2291.495,1504.689-2291.479,1504.69
							z"/>
						<path style="fill:#212D20;" d="M-2236.012,1504.022c-8.024-0.008-3.769,0.362-5.471,0.574
							c-9.577,0.104-4.432-0.272-7.692-0.462c-5.979,0.099-10.566,0.438-15.025,0.423c-0.332-0.061-1.199-0.083-0.183-0.159
							c-6.322,0.294-18.767,0.015-26.133,0.384c-0.547-0.033-0.823-0.063-0.961-0.092c1.193,0.185,1.376,0.373,1.133,0.507
							c-3.598,0.006-6.676,0.233-8.029-0.008c2.205,0.007,2.387-0.091,3.42-0.166l-3.769,0.105
							c-3.393-0.348,5.145-0.121,5.145-0.378c-7.35,0.113-15.916,0.4-21.546,0.303c-1.177-0.34,13.169-0.114,5.653-0.417
							l8.715,0.131c-6.659-0.536,5.294,0.037-0.824-0.536c-11.467-0.099-12.826,0.173-24.265,0.073
							c-2.575,0.189,0.851,0.279-1.725,0.469c-16.258,0.339-12.798-0.854-24.751-0.402c-3.095,0.227-4.294,0.656-12.804,0.43
							l2.901-0.385c-11.103-0.037-6.339,0.553-17.966,0.294c2.067-0.151,8.726-0.127,7.046-0.173
							c-7.532-0.303-5.327,0.218-11.119,0.218l-1.199-0.34c-11.82,0.112-24.84,0.236-37.932,0.36
							c0.724-0.101,2.967-0.207-0.094-0.311c-16.512,0.17-35.246-0.042-51.172-0.244l-6.084,0.294
							c-1.415-0.003-2.625-0.133-1.094-0.189c-6.206-0.111-0.321,0.187-3.305,0.302c-3.531,0.021-4.664-0.169-2.426-0.257
							c-10.953,0.249-31.201,0.536-42.739,0.222l2.249-0.088c-4.486-0.068-7.042,0.111-9.467,0.202
							c-2.418,0.074-4.796,0.122-8.856-0.606c0,0,0.39,0.059,0.784,0.087c0.394,0.035,0.787,0.069,0.787,0.069
							c-4.777-0.602-9.606-1.765-14.218-3.476c-4.602-1.729-8.973-4.065-12.718-6.977c-3.743-2.901-6.833-6.418-8.793-10.215
							c-0.985-1.893-1.684-3.846-2.087-5.768c-0.418-1.936-0.501-3.775-0.445-5.603c-0.423-2.829,0.188-19.303-0.401-20.557
							c0.292-11.136,0.397-7.947,0.594-23.631c0.027-4.188-0.368-6.244-0.43-11.422l0.309-0.127l-0.323-7.029l0.368-3.741
							l-0.079-4.858c-0.018,1.935-0.138,4.112-0.227,3.819c-0.07-3.794-0.017-8.418,0.074-12.117
							c0.046-1.85,0.101-3.468,0.154-4.636c0.053-1.167,0.105-1.885,0.144-1.932l-0.261-17.949c0.124,0.398,0.167,3.404,0.246,5.781
							c-0.314-9.583,0.324-1.741,0.036-10.522c-0.07,1.178-0.184-0.636-0.246-0.834c0.187-4.377,0.188-14.341,0.109-21.713
							l0.213,1.415c0.054-13.312-0.102-28.067-0.098-43.011c-0.099,5.36-0.467,4.128-0.502-0.254l0.325-1.752
							c-0.201-2.829-0.123,4.576-0.369-1.232c0.038-5.581,0.37-3.752,0.477-0.547l-0.113-6.786c0.098-0.397,0.148,1.193,0.272,1.608
							c-0.202-2.785,0.327-11.716-0.024-15.733l0.097-0.381c-0.055-14.938-0.081-21.713-0.125-33.881
							c-0.281-0.238-0.219-4.996-0.446-8.621c0.09-8.941,0.311-18.866,0.287-29.643c-0.14-7.571-0.238-2.211-0.405-5.614
							c0.256-0.559,0.232-11.318,0.416-5.736c-0.042-12.932-0.051-16.518-0.259-32.87c-0.105,1.774-0.151,3.77-0.238,2.735
							c-0.042-2.968,0.107-6.753,0.23-6.327l0.026,0.785c-0.384-18.358,0.747-42.37,0.213-56.986l0.026,0.817l-0.278-15.158
							c0.044-6.974,0.192,4.184,0.351-0.978c-0.427-16.353,0.062-25.835-0.223-39.303c0.755-10.422-0.053-36.986,0.429-51.057
							l-0.178,0.812c-0.175-3.636,0.102-4.398,0.143-7.079c-0.139,0.382-0.16,3.946-0.257,1.686
							c-0.017-3.851-0.033-7.731-0.05-11.638l-0.004-2.934c-0.007-0.986-0.003-1.964,0.044-2.878
							c0.108-1.862,0.458-3.714,1.033-5.504c1.131-3.595,3.233-6.87,5.802-9.71c2.599-2.828,5.688-5.237,9.048-7.195
							c6.726-3.941,14.406-6.235,22.163-7.153c1.94-0.251,3.894-0.362,5.844-0.442c0.978-0.031,1.948-0.028,2.93-0.037l2.986,0.021
							c3.979,0.024,7.945,0.049,11.893,0.072c11.55,0.049,6.554-0.92,21.116-0.495l-4.134,0.33
							c23.31-0.396,47.664,0.014,70.481-0.322c-1.359,0.076-1.398,0.175-3.625,0.174c2.409,0.12,6.865,0.123,10.729,0.071
							c1.932-0.025,3.715-0.064,5.021-0.11c1.306-0.045,2.134-0.096,2.155-0.145c3.553,0.022,0.823,0.177,3.012,0.276
							c4.835,0.142,12.135-0.307,14.705-0.067c0.437,0.039-1.359,0.077-2.244,0.097c3.15-0.117,14.678,0.029,11.66-0.248
							c8.566,0.133,16.385-0.123,23.216,0.041c4.454-0.31,14.661,0.149,16.076-0.289c-0.614,0.453,15.015,0.365,20.43,0.152
							c-1.812,0.137,4.708,0.142,2.586,0.331c6.178-0.007,11.842-0.091,10.765-0.323c11.384,0.542,22.884-0.436,29.294,0.259
							c18.358-0.243,35.346-0.407,51.858-0.514c-0.597,0.451-18.253,0.045-17.546,0.519c15.667-0.186,24.702-0.573,40.236-0.465
							c4.023,0.062-2.282,0.196-3.642,0.273c15.65-0.186,30.262,0.041,44.188-0.205c-0.019,0.021-0.405,0.043-0.963,0.064
							c-0.558,0.016-1.289,0.037-1.999,0.059c2.747-0.016,6.383,0.065,6.073-0.139l-2.675,0.055
							c-4.382-0.297,10.898-0.621,11.39-0.778c-4.659,0.587,13.755,0.147,6.355,0.89c1.807-0.038,4.073-0.136,3.659-0.272
							c2.68,0.04,3.531,0.12,0.812,0.276c9.831-0.112,6.338-0.33,15.247-0.325c-0.033,0.099-1.829,0.138-2.752,0.254
							c4.501-0.18,9.06-0.417,16.549-0.272c-0.45,0.052,0.412,0.144-1.805,0.105c6.383,0.007,11.831,0.646,17.28,1.972
							c2.721,0.676,5.439,1.546,8.217,2.734c2.769,1.198,5.626,2.683,8.463,4.739c-1.836-0.972-0.838-0.312,0.586,0.765
							c1.436,1.067,3.217,2.663,3.342,3.06c0,0.001,1.382,1.237,2.607,2.624c1.253,1.364,2.282,2.9,2.282,2.9
							c0,0-0.359-0.65-0.783-1.264c-0.396-0.632-0.848-1.229-0.848-1.229c2.082,2.507,3.674,5.169,4.734,7.919
							c1.049,2.765,1.521,5.589,1.398,8.423c0,0-0.01-0.31-0.025-0.774c-0.032-0.45-0.075-1.051-0.118-1.651
							c-0.087-0.595-0.175-1.189-0.24-1.635c-0.097-0.439-0.161-0.733-0.161-0.733c0,0,0.173,0.738,0.279,1.868
							c0.139,1.117,0.14,2.64,0.146,4.222c0.018,3.13,0.036,6.259,0.036,6.259l0.142-7.085c0.192,6.759,0.472-0.724,0.368,8.168
							c-0.038-1.807-0.005,6.682-0.225,10.163c0,0-0.001-0.021-0.001-0.022c0.119,3.305,0.244,6.703,0.151,11.644
							c-0.119,1.282-0.413-1.033-0.492-0.199c0.312,3.261,0.086,15.645,0.419,19.773c-0.078-1.376-0.274-1.448-0.314-0.995
							l0.254,2.735c-0.081,3.095-0.12,3.548-0.276,3.045c-0.047,9.307,0.474-2.956,0.27,8.091c-0.021-0.868-0.059-0.453-0.097-2.261
							c-0.106,11.097,0.161,21.437,0.036,31.632c-0.375,3.007-0.092-8.908-0.409-5.465c0.068,14.699,0.45,30.438,0.361,44.662
							l0.042-2.652c0.53,1.973-0.262,10.594-0.012,17.789c-0.04-1.763-0.294-2.311-0.235-1.835
							c-0.085,9.742,0.13,19.916,0.297,34.677l-0.137-1.829c-0.121,5.742-0.07,15.119-0.132,21.32
							c0.136,1.84,0.114,5.388,0.312,3.232c-0.776,19.121,0.416,36.473-0.23,53.438c-0.001-2.028-0.119-4.836-0.12-3.222
							l0.125,14.451c0.231-1.145,0.14-1.896,0.32-4.93c0.137,1.829,0.243,5.907,0.243,9.488c-0.153-6.499-0.371,0.056-0.5,2.862
							c0.071-0.47,0.149,0.492,0.221,0.255c-0.411,7.549,0.465,1.265,0.188,11.571l-0.122-0.547
							c0.062,3.857,0.222,7.41,0.188,11.571c-0.268,1.725-0.125-4.105-0.345-4.371c0.015,5.842,0.506,11.528,0.24,16.816
							c-0.043-2.482-0.106-6.051-0.15-8.532c-0.313,5.758-0.234,6.427-0.284,10.704l0.007-0.42l-0.143,9.892l0.085-2.52
							c0.697,7.311,0.128,14.888,0.584,24.735c-0.432-9.572-0.25-1.581-0.553-2.315c-0.084,2.514-0.178,6.338-0.264,5.249
							c0.245,4.653-0.192,7.771,0.165,14.341c-0.097,0.293-0.01,4.979-0.254,3.929c0.077,6.052,0.169-1.431,0.292-0.922
							c0.333,9.328-0.404,21.928,0.053,35.345c0.188,11.572,0.517,13.711,0.681,24.448c-0.156,3.625-0.355-2.968-0.355-2.968
							c-0.144,5.847-0.117,10.245-0.005,15.755c-0.085-1.116-0.157,0.033-0.266,1.713c0.025,4.422,0.354,2.957,0.211,8.787
							c-0.108-1-0.283-2.282-0.392-4.415c0.119,5.21,0.236,10.356,0.359,15.749c-0.17,1.432-0.258-3.255-0.368-5.156
							c0.076,6.062,0.153,15.706,0.423,17.579l0.096-3.891c0.013,2.211-0.231,1.139-0.28-0.491
							c-0.211-5.195,0.093-7.494,0.191-7.787l0.062,3.841c0.572-3.945-0.092-15.429-0.059-23.16l0.416,3.222l-0.345-7.93
							c0.108-1.686,0.34-2.841,0.403,0.979c0.205-5.543-0.148-4.907,0.081-9.671c0.036-0.525,0.056-0.288,0.072,0.198l-0.124-5.415
							c0.088,1.061,0.294-0.901,0.234,2.426c0.24-9.721-0.312-15.678,0.003-19.336l0.025,0.812
							c-0.141-13.489-0.306-1.305-0.664-11.423l0.753-6.809l-0.305-1.326c0.011-1.393,0.034-4.145,0.156-3.636
							c-0.209-5.179-0.133,0.884-0.33-2.122c0.278-6.698-0.13-18.469,0.356-19.978c-0.232-2.403-0.179,6.405-0.34-0.746
							c0.523-2.039-0.09-8.267,0.15-14.385c0.27,1.879,0.127,7.676,0.368,1.553c-0.457-3.691,0.1-11.914,0.013-17.075
							c-0.363-0.243-0.152-11.224-0.272-19.884c0.122,0.548,0.199-16.297,0.331-24.354l0.061,0.237
							c-0.367-1.559-0.298-9.869-0.374-15.921c0.22,0.237,0.307,1.326,0.405,4.604l-0.002-5.687
							c-0.118-1.343-0.18-3.117-0.222-6.809l0.274,1.432c-0.015-7.57-0.323-15.247-0.14-24.989
							c-0.256-0.547-0.713,7.747-0.884-2.554c0.138-0.381,0.375-0.762,0.432,1.935c-0.018-0.884-0.115-3.149-0.056-4.93l0.233,4.117
							c0.103-4.438-0.194-2.321-0.173-5.868c0.197,0.071,0.141-2.625,0.298-2.117c0.019,0.906-0.082,3.095-0.004,4.454
							c0.036-4.001,0.152-8.836,0.302-10.434c-0.112,0.349-0.266,0-0.292-2.929c-0.014-7.57,0.238-2.592,0.339-7.007
							c-0.137-1.835,0.005-6.665-0.29-6.792c0.002-2.216,0.14-2.625,0.22-3.481c-0.131-3.918-0.038-18.303-0.352-13.888
							l-0.021,1.006c-0.004-0.188-0.009-0.408-0.013-0.641c0,0.033,0,0,0,0.033v-0.033c-0.293-12.843,0.167-26.681,0.041-39.424
							l0.099,0.022c-0.113-7.61-0.067-16.933-0.279-22.364c0-2.25,0.18-5.312,0.298-4.35c-0.074-5.813-0.186-6.466-0.022-14.865
							c0.172,5.847,0.152-2.018,0.126,5.99c0.085-7.555,0.244-9.268-0.026-17.38c0.253,2.763,0.318-5.687,0.243-9.278l-0.181,5.294
							c-0.037-4.04-0.014-7.571,0.007-11.157l0.333,1.939c0.405-15.462-0.689-27.885-0.011-39.656
							c-0.232-4.089-0.164,8.4-0.436,4.742c0.045-7.112,0.522-14.523,0.523-16.75c0.184-9.743-0.486-9.091-0.36-19.286
							c-0.119,1.304-0.436,2.536-0.547-5.085c0.044-7.117,0.498-8.747,0.593-4.255c0.01,1.708-0.028,2.531-0.068,2.459
							c0.043,2.3,0.094,5.316,0.223,2.498l-0.118-0.923c0.045-1.782,0.122-5.059,0.089-7.736c-0.085-2.711-0.571-4.629-0.215-3.47
							c-0.625-2.75-0.988-3.262-0.805-2.669c0.141,0.603,0.625,2.383,0.812,4.445c-0.225-2.36-0.783-4.42-1.494-6.27
							c-0.706-1.855-1.61-3.489-2.63-5.04c-1.017-1.555-2.18-3.02-3.557-4.466c-1.372-1.451-2.942-2.906-4.841-4.382
							c1.165,0.995,2.162,1.985,0.982,1.036c-2.728-2.216-4.588-3.298-5.785-3.987c-1.208-0.675-1.791-0.919-2.234-1.122
							c-0.927-0.32-1.281-0.556-5.667-2.273c-2.485-0.997-2.008-0.923-2.018-1.004c-0.008-0.034-0.137-0.118-0.843-0.337
							c-0.703-0.229-1.974-0.628-4.295-1.158c-5.657-1.346-1.132-0.629,1.151-0.134c-4.25-0.998-8.276-1.603-11.862-1.959
							c-1.793-0.172-3.477-0.273-5.023-0.323c-1.534-0.053-2.905-0.073-4.131-0.087c0,0,1.127-0.024,2.254-0.049
							c1.119-0.03,2.271-0.033,2.271-0.033c-2.729,0.029-4.916,0.047-7.173,0.041l2.575,0.236c-2.647-0.041-4.891-0.042-4.841-0.141
							c-2.73,0.155,2.089,0.395-3.327,0.607c-3.531-0.121-10.754,0.129-11.975-0.186c11.107,0.107-1.227-0.316,8.173-0.367
							c-1.812,0.037-4.023,0.036-6.681-0.006c-0.398-0.035,0.376-0.064,1.1-0.083c-10.627-0.281-4.885,0.356-15.899,0.349
							c1.398-0.178-2.553-0.336-4.349-0.299c4.438,0.004,2.122,0.297-1.951,0.433c-7.062-0.139-7.676,0.103-11.373,0.087
							l4.222,0.064c-1.432,0.178-4.963,0.154-9.887,0.21c-0.42-0.138,4.471-0.095,2.714-0.155
							c-5.466,0.312-12.352-0.323-19.972-0.113c-3.531-0.12-0.343-0.334-3.443-0.415c-8.543,0.23-9.25-0.243-18.23-0.053
							c2.586,0.238,3.039,0.18-3.283,0.413l14.76-0.168l-9.472,0.347c4.454,0.003,9.4-0.15,12.069-0.109
							c-4.515,0.194-4.051,0.135-1.918,0.333c-6.095-0.357-12.085,0.209-19.131-0.033l0.215-0.591
							c-10.594-0.263-18.822,0.304-32.577,0.154l4.421,0.103c-1.846,0.235-8.494,0.033-12.948,0.129
							c0.415-0.198-2.371-0.27-4.272-0.393c0.232,0.146-10.068-0.014-11.317,0.381l-6.14-0.26
							c-11.108-0.106-12.677,0.562-23.354,0.495c3.216-0.215-1.636-0.354,5.515-0.508c-3.564-0.002-6.77-0.038-6.825,0.099
							c-2.083-0.124-9.886,0.266-13.163,0.078c-1.503,0.087-1.995,0.294-5.996,0.277c-0.437-0.04,0.017-0.098,0.017-0.098
							c-0.017,0.098-6.267,0.133-2.769,0.352c-10.98-0.616-30.692,0.045-40.253-0.484c-7.781,0.046-17.153,0.102-24.215,0.145
							c0.453-0.06,0.022-0.099,1.359-0.078c-9.743-0.184-5.991,0.566-17.076,0.361c-5.664-0.318,5.886-0.172,2.354-0.293
							c-1.537-0.65-13.379,0.088-20.839-0.291l1.807-0.038c-5.703-0.221-13.915,0.246-23.232,0.2c0,0,0.453-0.058,0.055-0.099
							c-6.372,0.331-18.436,0.44-27.399,0.533c2.791-0.255,4.073-0.135,2.371-0.394c-4.018,0.037,1.177,0.415-6.841,0.487
							c-2.608-0.139-8.395-0.261-9.163-0.536l7.565-0.015c-3.874-0.356-9.792,0.012-13.777-0.05l0.509-0.156
							c-11.594,0.051-11.754,0.443-24.216,0.416l1.288,0.117c-3.405,0.197-4.83,0.136-6.258,0.078
							c-1.429-0.036-2.876-0.147-6.267,0.305c0,0-0.525-0.062-1.05-0.099c-0.526-0.034-1.053-0.069-1.053-0.069
							c-2.247,0.318-6.173,1.037-10.387,2.376c-4.215,1.33-8.681,3.315-12.147,5.423c1.904-1.289,5.014-3.004,8.464-4.348
							c3.441-1.361,7.18-2.393,10.075-3.002c-2.225,0.381-5.971,1.273-9.327,2.5c-3.371,1.188-6.314,2.714-7.308,3.346
							c1.598-0.868,3.642-1.931,5.351-2.503c-2.522,1.151-5.382,2.604-8.43,4.565c-3.02,1.991-6.256,4.492-9.177,7.898
							c0.126-0.418-0.831,0.43-2.19,2.223c-1.338,1.794-2.985,4.63-3.959,8.004c-0.506,1.678-0.781,3.488-0.898,5.276
							c-0.099,1.815-0.046,3.467-0.087,5.083c-0.042,3.197-0.118,5.949-0.266,7.559c0.283,15.699-0.121,31.146-0.076,49.438
							c0.596-6.488,0.017,5.338,0.629,4.216c0.039,4.261,0.028,5.886-0.011,6.267l-0.365,12.909
							c-0.178,3.062-0.135-4.051-0.272-3.658c-0.047,9.328-0.259,3.913-0.421,10.085c0.219-1.265,0.313,3.244,0.23,8.561
							l0.282-7.488c0.326,13.036-0.513,11.269-0.191,24.409l-0.192-4.155c0.113,6.742-0.004,24.873,0.487,31.482
							c-0.07,1.193-0.238,2.769-0.282-0.199c-0.073,16.114,0.523,35.871,0.221,48.393l-0.149-1.221
							c0.043,3.006,0.281,5.233,0.13,8.996c-0.062-0.193-0.149-1.21-0.158,0.183c0.051,1.592,0.262,7.985,0.175,11.97l-0.168-3.404
							c-0.195,15.717,0.41,24.122,0.513,37.302c-0.44-0.033-0.583,12.335-0.655,18.508l-0.062-0.216
							c-0.055,18.303,0.364,31.09,0.537,48.039c-0.478,10.521-0.2,35.639-0.468,52.549c0.08-2.587,0.343,0.42,0.387,3.426
							c-0.089,3.968,0.305,10.97-0.098,10.34l0.008-1.415c-0.396,2.989-0.291,11.146-0.302,17.513l0.528,1.05
							c-0.769,16.656,0.282,43.641-0.406,52.731c0.082,4.019,0.182,8.995,0.263,12.98l-0.283-0.216
							c-0.072,11.136-0.107,16.695-0.04,30.461l-0.203-2.808c-0.009,3.882,0.195,6.333,0.403,8.709
							c0.104,1.188,0.209,2.356,0.29,3.676c0.028,0.649,0.106,1.387,0.155,2.16c0.102,0.773,0.166,1.614,0.353,2.517
							c0,0-0.001,0.568-0.002,1.137c0.039,0.569,0.078,1.138,0.078,1.138c0.927,3.424,2.582,6.626,4.694,9.443
							c2.097,2.839,4.669,5.284,7.448,7.398c5.599,4.206,12.106,6.996,18.735,8.524c-0.228-0.016-0.665,0.052-2.812-0.592
							c3.089,1.025,9.249,2.465,14.428,2.795c2.576,0.2,4.912,0.205,6.396,0.147c1.488-0.056,2.197-0.146,1.618-0.292
							c0.08,0.188,3.574,0.198,7.962,0.14c4.388-0.089,9.671-0.195,13.33-0.27l-1.139,0.279c6.173-0.356,6.372-0.454,14.993-0.553
							c2.045,0.037,1.791,0.224-0.923,0.152c6.808,0.146,5.305-0.264,13.561-0.115l-3.078,0.178
							c7.007,0.021,6.449-0.074,10.306-0.281c4.404-0.112,13.291,0.07,14.324,0.322c0.945-0.154,4.78-0.359,8.908-0.287
							c0.558,0.096-0.945,0.154-1.702,0.184c11.716,0.189,17.419-0.324,25.476-0.051c0.166,0.093,0.691,0.139,1.359,0.166
							c-9.306-0.006-16.799-0.021-16.098-0.042c0,0.257,7.516,0.302,1.537,0.657c6.035-0.193,16.352-0.615,23.68-0.494
							c0.354,0.025,0.702,0.05,0.967,0.089l-0.757,0.029c1.691,0.025,3.205,0.001,4.631-0.042c2.337,0.043,3.824,0.074,6.068,0.077
							c0.867,0.213,8.621,0.115,12.367,0.126c-0.309-0.281,4.598-0.236,0-0.469c0.597,0.02-0.707,0.033-3.199,0.045
							c-0.564,0.011-1.227,0.022-1.597,0.029c0.072-0.007,0.16-0.016,0.254-0.024c-2.459,0.005-5.67,0.012-9.317,0.019
							c2.962-0.143,6.057-0.263,10.201-0.106c1.924-0.167,4.041-0.351,5.233-0.454c5.128,0.393,15.015,0.604,16.391,0.846
							c11.445-0.157,26.962-0.104,34.157-0.632c3.255-0.067,3.741,0.151,4.957,0.234c-1.879,0.053-4.111,0.045-5.128,0.121
							c6.504-0.136,19.275-0.053,20.828-0.422c8.201,0.167-4.609,0.34,6.659,0.279l-1.52,0.112
							c22.166,0.59,36.036-0.941,60.611-0.185c-1.702-0.046-2.553-0.067-2.901-0.13c28.018,0.334,57.738-0.312,85.385,0.217
							c7.858,0.106,8.709-0.129,13.506-0.309l1.702,0.303l8.201-0.349c5.813-0.128,10.848,0.058,16.269,0.214
							c2.71,0.079,5.518,0.15,8.567,0.172c3.033,0.014,6.375,0.052,10.07-0.407c0,0-0.481-0.009-0.963-0.018
							c-0.481-0.006-0.962-0.042-0.962-0.042c2.658-0.124,6.852-0.641,10.207-1.398c3.363-0.724,5.894-1.574,5.505-1.32
							c0.514-0.193,1.604-0.717,3.586-1.358l0.208,0.089c0,0,3.052-1.227,5.9-2.856c2.876-1.583,5.471-3.591,5.471-3.591
							c2.057-1.486,2.935-2.27,3.407-2.582c0.458-0.33,0.465-0.247,0.584-0.256c0.117-0.014,0.342-0.125,1.211-0.896
							c0.814-0.818,2.375-2.244,4.45-5.436c1.517-2.383,3.02-6.199,3.37-9.237c0.225-1.506,0.233-2.787,0.198-3.548
							c-0.024-0.763-0.067-1.008-0.107-0.488c-0.023,1.122-0.151,2.555-0.407,3.699c-0.229,1.15-0.547,2.007-0.642,2.067
							c0,0,0.074-0.306,0.186-0.764c0.104-0.46,0.19-1.084,0.3-1.702c0.078-0.622,0.124-1.249,0.172-1.717
							c0.014-0.47,0.022-0.783,0.022-0.783c-0.206-0.466-0.422-1.639-0.649-1.184c-0.115,0.233-0.218,0.851-0.408,2.137
							c-0.214,1.277-0.562,3.236-1.655,5.947c0,0-0.178,0.477-0.446,1.193c-0.299,0.703-0.701,1.647-1.204,2.546
							c-0.965,1.818-2.213,3.487-2.213,3.487s-0.473,0.476-0.945,0.951c-0.472,0.473-0.981,0.909-0.981,0.908
							c0,0,0.295-0.318,0.738-0.797c0.407-0.507,0.999-1.146,1.496-1.855c1.062-1.372,1.9-2.882,1.9-2.882
							c-1.07,1.638-2.021,2.92-2.941,4.058c-0.898,1.153-1.783,2.146-2.757,3.164c-0.577,0.358-1.484,1.086-2.815,2.053
							c0,0-0.375,0.344-0.979,0.815c-0.586,0.493-1.408,1.102-2.239,1.703c-1.676,1.185-3.461,2.23-3.461,2.23
							c-0.483,0.152,0.292-0.36,0.566-0.602c0.264-0.263,0.085-0.148-2.413,0.992c-3.429,1.764,3.568-1.12-2.237,1.577
							c-1.911,0.657-2.623,0.776-3.391,1c-0.383,0.115-0.786,0.236-1.375,0.413c-0.585,0.194-1.353,0.453-2.485,0.794
							c-0.674,0.044,0.285-0.251,2.052-0.843c-1.98,0.682-4.673,1.377-7.155,1.839c-2.483,0.453-4.737,0.76-5.812,0.957
							c-2.115,0.091-5.624,0.198-8.667,0.156c-3.019-0.006-5.454-0.033-5.244-0.254c-1.343,0.105-7.521,0.346-11.444,0.364
							c7.167-0.527-14.684-0.031-12.788-0.597c-5.305,0.475-19.159,0.211-28.554,0.474c0.525-0.037,1.559-0.114,2.388-0.089
							c-5.289-0.04-6.825-0.184-10.224-0.272c-0.68,0.392-8.914,0.481-13.352,0.723c-6.482-0.378,3.935-0.46,1.901-0.823
							c0.326,0.318-11.263,0.317-9.058,0.582c-4.957-0.234-4.271-0.113-6.825-0.438c-0.868,0.489-4.614,0.083-8.726,0.384
							c-7.173-0.241-1.846-0.459-9.726-0.31C-2243.02,1504.196-2236.012,1504.022-2236.012,1504.022z M-2423.416,1504.87v-0.006
							c1.613-0.007,2.989-0.013,3.868-0.016C-2420.354,1504.853-2421.471,1504.859-2423.416,1504.87z M-2439.166,1504.874
							c1.918,0.003,4.305,0.007,6.831,0.011c0.553,0.098-0.044,0.197-1.63,0.192
							C-2433.104,1505.012-2436.817,1504.956-2439.166,1504.874z M-2405.854,1506.822c-2.492,0.04-3.327-0.016-3.669-0.073
							c1.177-0.009,2.553-0.02,4.36-0.033c0.072-0.009,0.221-0.026,0.293-0.034
							C-2405.108,1506.734-2405.379,1506.785-2405.854,1506.822z"/>
						<path style="fill:#212D20;" d="M-2401.372,1506.453c0.359-0.007,0.558-0.011,1.028-0.02c-0.509-0.022-0.995-0.043-1.487-0.063
							c-0.304,0.03-0.613,0.061-0.884,0.088C-2402.262,1506.457-2401.792,1506.455-2401.372,1506.453z"/>
						<path style="fill:#212D20;" d="M-2076.777,1159.654l0.006-0.331c-0.011,0.276-0.022,0.53-0.04,0.696
							C-2076.791,1159.799-2076.791,1159.799-2076.777,1159.654z"/>
						<polygon style="fill:#212D20;" points="-2582.932,1416.46 -2583.003,1416.482 -2582.941,1417.858 						"/>
						<path style="fill:#212D20;" d="M-2077.742,1246.394c-0.024,0.166-0.05,0.492-0.072,1.139
							C-2077.796,1247.482-2077.77,1246.99-2077.742,1246.394z"/>
						<path style="fill:#212D20;" d="M-2077.805,1283.861l-0.1,5.3C-2077.862,1286.867-2077.831,1285.198-2077.805,1283.861z"/>
						<path style="fill:#212D20;" d="M-2077.944,1312.669c0.049,0.365,0.086,0.47,0.12,0.564c0.001-0.022,0.001-0.039,0.002-0.056
							L-2077.944,1312.669z"/>
						<path style="fill:#212D20;" d="M-2177.952,939.727c-0.387,0.004-0.768,0.008-1.111,0.012
							C-2181.671,939.793-2179.897,939.771-2177.952,939.727z"/>
						<path style="fill:#212D20;" d="M-2077.618,990.94c-0.044-1.448-0.087-2.874-0.133-4.382
							C-2077.772,988.984-2077.778,990.869-2077.618,990.94z"/>
						<path style="fill:#212D20;" d="M-2330.16,940.064c0.017-0.002,0-0.002,0.017-0.005c-0.326,0-0.614,0-0.939,0L-2330.16,940.064
							z"/>
						<path style="fill:#212D20;" d="M-2077.746,980.22c-0.056,2.426-0.044,4.454-0.005,6.339
							C-2077.732,984.568-2077.703,982.226-2077.746,980.22z"/>
						<path style="fill:#212D20;" d="M-2078.072,1437.527l-0.012,1.388c0.019-0.022,0.034,0.061,0.045,0.166L-2078.072,1437.527z"/>
						<path style="fill:#212D20;" d="M-2078.039,1439.081l0.033,1.542C-2078.005,1439.915-2078.008,1439.302-2078.039,1439.081z"/>
						<path style="fill:#212D20;" d="M-2077.935,1443.866l-0.071-3.243C-2078.006,1441.744-2078.015,1443.132-2077.935,1443.866z"/>
						<path style="fill:#212D20;" d="M-2077.942,1399.392l-0.102-0.437C-2078.023,1399.192-2077.99,1399.348-2077.942,1399.392z"/>
						<path style="fill:#212D20;" d="M-2077.972,1387.803c-0.023,2.764-0.218,6.936-0.153,10.793l0.081,0.359
							C-2078.196,1397.143-2077.8,1390.428-2077.972,1387.803z"/>
						<path style="fill:#212D20;" d="M-2076.712,1339.433l-0.081,9.71c0.108-1.697,0.254-3.93,0.28,0.486
							C-2076.188,1337.388-2076.755,1352.154-2076.712,1339.433z"/>
						<path style="fill:#212D20;" d="M-2076.554,1309.32c0.05,5.217,0.158-0.061,0.219,0.216
							C-2076.434,1306.226-2076.459,1305.425-2076.554,1309.32z"/>
						<path style="fill:#212D20;" d="M-2076.553,1091.716l0.256,0.525C-2076.334,1088.218-2076.396,1092.202-2076.553,1091.716z"/>
						<polygon style="fill:#212D20;" points="-2077.875,1050.12 -2078.034,1054.033 -2077.8,1055.896 						"/>
						<polygon style="fill:#212D20;" points="-2076.053,1025.545 -2076.017,1027.303 -2076.109,1020.594 						"/>
						<path style="fill:#212D20;" d="M-2372.501,937.596l1.216,0.314C-2368.567,937.854-2367.998,937.5-2372.501,937.596z"/>
						<path style="fill:#212D20;" d="M-2530.274,937.916c-1.725-0.142-6.138-0.3-8.923-0.044
							C-2535.589,937.779-2532.093,937.979-2530.274,937.916z"/>
						<polygon style="fill:#212D20;" points="-2585.458,1374.615 -2585.564,1371.443 -2585.476,1377.423 						"/>
					</g>
				</g>
			</g>
		</g>
	</g>
	<g>
		<path d="M-2079.992,1531c18.1,0,32.992,21.038,32.992,47.455v411.355c0,26.418-14.893,48.189-32.992,48.189h-501.426
			c-18.1,0-32.582-21.771-32.582-48.189v-411.355c0-26.417,14.482-47.455,32.582-47.455H-2079.992z"/>
		<g>
			<g>
				<g>
					<g>
						<path style="fill:#212D20;" d="M-2079.992,1531.289c1.094-0.086,0.475-0.281-2.542-0.243l-2.144,0.331L-2079.992,1531.289z"/>
						<path style="fill:#212D20;" d="M-2100.301,1530.676c-3.548,0.16-7.643,0.442-5.344,0.746c3.515-0.318,4.365-0.186,8.151-0.564
							c3.023-0.038,5.272,0.106,4.764,0.229c1.066-0.085,4.692,0.072,6.316-0.135c-3.929-0.257-8.908-0.267-14.108-0.056
							C-2101.638,1530.823-2100.555,1530.736-2100.301,1530.676z"/>
						<path style="fill:#212D20;" d="M-2395.416,1530.159l1.901,0.04C-2394.034,1530.177-2394.686,1530.165-2395.416,1530.159z"/>
						<path style="fill:#212D20;" d="M-2578.266,1529.978c1.393-0.008,1.973-0.04,2.045-0.07
							C-2577.515,1529.929-2578.575,1529.949-2578.266,1529.978z"/>
						<path style="fill:#212D20;" d="M-2605.351,1543.959c0.406-0.551,0.749-1.016,1.118-1.516
							C-2604.678,1543.007-2605.114,1543.586-2605.351,1543.959z"/>
						<path style="fill:#212D20;" d="M-2395.416,1530.159l-4.885-0.104C-2400.644,1530.163-2397.797,1530.136-2395.416,1530.159z"/>
						<path style="fill:#212D20;" d="M-2140.996,1531.474c1.022-0.016,1.874-0.047,2.652-0.087c-0.84,0.012-1.652,0.023-2.492,0.035
							C-2140.88,1531.439-2140.918,1531.455-2140.996,1531.474z"/>
						<path style="fill:#212D20;" d="M-2314.811,1529.891h1.486c0.437-0.037,0.846-0.083,1.232-0.135L-2314.811,1529.891z"/>
						<path style="fill:#212D20;" d="M-2252.951,1529.84c-1.398-0.012-1.884,0.27-2.42,0.393c0.79-0.116,1.824-0.172,3.05-0.193
							C-2252.299,1529.986-2252.481,1529.922-2252.951,1529.84z"/>
						<path style="fill:#212D20;" d="M-2154.861,1530.335l1.741-0.039C-2153.573,1530.306-2154.336,1530.323-2154.861,1530.335z"/>
						<path style="fill:#212D20;" d="M-2359.086,1529.83c-0.105-0.041-0.326-0.078-0.564-0.1
							C-2359.65,1529.766-2359.429,1529.799-2359.086,1529.83z"/>
						<path style="fill:#212D20;" d="M-2048.538,1586.3c0.02,0.05,0.032-0.022,0.05-0.006
							C-2048.517,1585.935-2048.537,1585.824-2048.538,1586.3z"/>
						<path style="fill:#212D20;" d="M-2079.992,1530.551l0.998,0.021c0.107-0.05,0.222-0.098,0.225-0.149L-2079.992,1530.551z"/>
						<path style="fill:#212D20;" d="M-2615.562,1599.792c0.002-0.11,0.003-0.149,0.005-0.254
							C-2615.588,1598.035-2615.583,1598.886-2615.562,1599.792z"/>
						<path style="fill:#212D20;" d="M-2510.799,2038.806c-5.94-0.251,9.671-0.323,0.724-0.602
							C-2509.24,2038.313-2518.204,2038.643-2510.799,2038.806z"/>
						<path style="fill:#212D20;" d="M-2142.598,1531.438c-0.834,0-1.686,0.002-2.537,0.002
							C-2143.98,1531.438-2143.201,1531.438-2142.598,1531.438z"/>
						<path style="fill:#212D20;" d="M-2510.075,2038.204v-0.003l-0.923-0.026
							C-2510.617,2038.188-2510.401,2038.193-2510.075,2038.204z"/>
						<path style="fill:#212D20;" d="M-2615.393,1731.438c0.05-0.271,0.087-0.797,0.123-1.344
							C-2615.298,1730.139-2615.333,1730.442-2615.393,1731.438z"/>
						<path style="fill:#212D20;" d="M-2614.993,1633.363l-0.038,2.427C-2615.016,1634.828-2615.003,1634.049-2614.993,1633.363z"/>
						<path style="fill:#212D20;" d="M-2614.996,1782.355c-0.021,1.32-0.06,1.768-0.022,3.569c0.01-0.166,0.021-0.331,0.034-0.547
							C-2615.022,1784.726-2615.041,1783.858-2614.996,1782.355z"/>
						<path style="fill:#212D20;" d="M-2614.994,1835.356c0.017-0.282,0.038-0.651,0.057-0.978c-0.005-0.525-0.01-1.139-0.015-1.68
							L-2614.994,1835.356z"/>
						<path style="fill:#212D20;" d="M-2048.403,1747.371c0.079-1.16,0.167-1.885,0.253-2.448
							C-2048.351,1745.74-2048.422,1737.954-2048.403,1747.371z"/>
						<path style="fill:#212D20;" d="M-2141.023,1531.316c-0.31,0.07-0.763,0.105-1.575,0.121c0.608-0.006,1.193-0.011,1.763-0.016
							C-2140.681,1531.38-2140.647,1531.341-2141.023,1531.316z"/>
						<path style="fill:#212D20;" d="M-2612.778,1784.511l-0.042,8.422C-2612.808,1790.578-2612.793,1787.517-2612.778,1784.511z"/>
						<path style="fill:#212D20;" d="M-2153.918,2036.498l1.934-0.033C-2152.73,2036.458-2153.415,2036.467-2153.918,2036.498z"/>
						<path style="fill:#212D20;" d="M-2612.778,1817.922c-0.099,1.503-0.157,3.095-0.194,4.741c0.022,0.349,0.04,0.746,0.072,0.979
							L-2612.778,1817.922z"/>
						<path style="fill:#212D20;" d="M-2048.147,1744.906c-0.001,0.017-0.003,0.017-0.003,0.017
							S-2048.148,1744.923-2048.147,1744.906z"/>
						<path style="fill:#212D20;" d="M-2048.815,1689.439c-0.008,8.024,0.362,3.77,0.574,5.472c0.104,9.577-0.272,4.432-0.461,7.692
							c0.098,5.979,0.437,10.566,0.422,15.025c-0.061,0.332-0.083,1.199-0.159,0.183c0.294,6.321,0.015,18.767,0.384,26.134
							c-0.033,0.547-0.064,0.822-0.092,0.961c0.185-1.193,0.373-1.376,0.507-1.133c0.006,3.598,0.233,6.676-0.008,8.029
							c0.007-2.205-0.091-2.387-0.166-3.42l0.105,3.769c-0.347,3.393-0.12-5.146-0.377-5.146c0.113,7.351,0.4,15.916,0.303,21.547
							c-0.34,1.178-0.114-13.169-0.417-5.653l0.13-8.715c-0.536,6.659,0.038-5.294-0.536,0.823
							c-0.099,11.467,0.173,12.826,0.074,24.266c0.189,2.575,0.279-0.851,0.468,1.725c0.339,16.258-0.854,12.799-0.402,24.752
							c0.226,3.094,0.656,4.293,0.429,12.804l-0.384-2.901c-0.038,11.103,0.552,6.339,0.294,17.966
							c-0.151-2.067-0.127-8.726-0.173-7.046c-0.303,7.532,0.218,5.327,0.218,11.119l-0.34,1.199
							c0.112,11.819,0.236,24.84,0.361,37.932c-0.101-0.725-0.208-2.968-0.312,0.094c0.17,16.512-0.042,35.246-0.243,51.172
							l0.293,6.085c-0.003,1.414-0.133,2.625-0.189,1.094c-0.111,6.206,0.186,0.32,0.302,3.305c0.021,3.531-0.169,4.664-0.257,2.426
							c0.249,10.953,0.536,31.201,0.222,42.739l-0.087-2.248c-0.068,4.485,0.111,7.042,0.202,9.467
							c0.074,2.418,0.123,4.796-0.606,8.855c0,0,0.058-0.391,0.087-0.784c0.035-0.394,0.07-0.786,0.07-0.786
							c-0.602,4.776-1.765,9.605-3.476,14.218c-1.73,4.602-4.066,8.974-6.978,12.718c-2.901,3.743-6.417,6.834-10.214,8.793
							c-1.893,0.986-3.846,1.685-5.768,2.088c-1.936,0.418-3.775,0.501-5.602,0.445c-2.83,0.423-19.303-0.188-20.558,0.401
							c-11.135-0.292-7.947-0.397-23.63-0.594c-4.189-0.027-6.245,0.368-11.422,0.43l-0.127-0.309l-7.029,0.323l-3.741-0.368
							l-4.857,0.079c1.934,0.018,4.111,0.139,3.819,0.227c-3.794,0.07-8.418,0.017-12.117-0.074
							c-1.85-0.046-3.468-0.101-4.635-0.153c-1.168-0.054-1.885-0.105-1.932-0.145l-17.949,0.261
							c0.398-0.124,3.404-0.167,5.78-0.246c-9.583,0.314-1.741-0.324-10.522-0.036c1.177,0.069-0.635,0.184-0.834,0.246
							c-4.377-0.187-14.341-0.188-21.713-0.109l1.415-0.213c-13.312-0.054-28.067,0.103-43.01,0.099
							c5.36,0.099,4.128,0.467-0.254,0.502l-1.752-0.325c-2.829,0.201,4.576,0.123-1.232,0.369c-5.582-0.038-3.752-0.37-0.547-0.477
							l-6.786,0.113c-0.397-0.098,1.194-0.148,1.608-0.272c-2.785,0.202-11.716-0.327-15.733,0.024l-0.381-0.097
							c-14.938,0.055-21.713,0.08-33.881,0.125c-0.238,0.281-4.996,0.219-8.621,0.446c-8.941-0.09-18.867-0.311-29.643-0.287
							c-7.571,0.14-2.21,0.238-5.615,0.405c-0.558-0.256-11.317-0.232-5.736-0.416c-12.932,0.042-16.518,0.051-32.87,0.259
							c1.774,0.105,3.769,0.151,2.735,0.238c-2.967,0.042-6.753-0.107-6.327-0.23l0.785-0.026
							c-18.358,0.384-42.369-0.747-56.986-0.213l0.818-0.026l-15.159,0.278c-6.974-0.045,4.184-0.192-0.978-0.352
							c-16.352,0.428-25.835-0.062-39.302,0.223c-10.422-0.755-36.986,0.054-51.056-0.429l0.812,0.178
							c-3.636,0.175-4.398-0.102-7.079-0.143c0.381,0.139,3.945,0.16,1.685,0.257c-3.85,0.017-7.731,0.033-11.637,0.05l-2.934,0.004
							c-0.987,0.007-1.964,0.003-2.878-0.044c-1.862-0.109-3.714-0.459-5.504-1.033c-3.595-1.132-6.87-3.234-9.71-5.803
							c-2.828-2.599-5.237-5.688-7.196-9.048c-3.941-6.726-6.235-14.406-7.152-22.163c-0.251-1.939-0.363-3.895-0.443-5.844
							c-0.032-0.978-0.028-1.948-0.037-2.93l0.021-2.987c0.024-3.979,0.048-7.945,0.073-11.893c0.048-11.55-0.92-6.554-0.496-21.116
							l0.33,4.134c-0.396-23.31,0.014-47.663-0.322-70.48c0.076,1.359,0.175,1.397,0.174,3.625c0.12-2.409,0.123-6.864,0.072-10.729
							c-0.026-1.932-0.065-3.716-0.11-5.021c-0.045-1.306-0.096-2.134-0.145-2.155c0.022-3.553,0.177-0.823,0.276-3.012
							c0.142-4.835-0.307-12.135-0.067-14.705c0.039-0.437,0.078,1.359,0.096,2.244c-0.116-3.15,0.03-14.678-0.248-11.66
							c0.132-8.566-0.123-16.386,0.041-23.216c-0.31-4.454,0.149-14.661-0.289-16.075c0.453,0.613,0.365-15.016,0.152-20.431
							c0.137,1.812,0.142-4.708,0.331-2.586c-0.006-6.179-0.09-11.843-0.323-10.766c0.542-11.384-0.436-22.884,0.258-29.294
							c-0.243-18.358-0.408-35.346-0.514-51.857c0.451,0.597,0.045,18.253,0.519,17.545c-0.186-15.666-0.573-24.701-0.464-40.236
							c0.062-4.022,0.196,2.283,0.273,3.643c-0.186-15.65,0.041-30.262-0.205-44.188c0.021,0.02,0.043,0.404,0.064,0.963
							c0.016,0.559,0.038,1.289,0.058,1.999c-0.015-2.747,0.066-6.383-0.139-6.073l0.055,2.675
							c-0.297,4.382-0.621-10.897-0.778-11.39c0.587,4.658,0.147-13.755,0.89-6.355c-0.039-1.807-0.136-4.072-0.273-3.658
							c0.04-2.68,0.12-3.531,0.276-0.812c-0.112-9.831-0.33-6.338-0.325-15.246c0.099,0.033,0.138,1.829,0.254,2.752
							c-0.18-4.501-0.417-9.06-0.273-16.549c0.053,0.449,0.144-0.412,0.106,1.805c0.006-6.383,0.646-11.831,1.972-17.28
							c0.676-2.721,1.546-5.439,2.734-8.218c1.198-2.769,2.683-5.625,4.739-8.463c-0.971,1.836-0.312,0.838,0.765-0.586
							c1.067-1.436,2.663-3.217,3.06-3.343c0,0.001,1.237-1.382,2.624-2.607c1.364-1.253,2.9-2.281,2.9-2.281
							s-0.65,0.359-1.264,0.783c-0.632,0.396-1.229,0.848-1.229,0.848c2.507-2.082,5.169-3.674,7.919-4.734
							c2.764-1.05,5.589-1.521,8.423-1.398c0,0-0.31,0.011-0.774,0.025c-0.451,0.032-1.051,0.075-1.652,0.117
							c-0.594,0.088-1.188,0.175-1.634,0.241c-0.44,0.096-0.733,0.16-0.733,0.16s0.738-0.173,1.868-0.279
							c1.118-0.139,2.639-0.14,4.222-0.146c3.129-0.018,6.258-0.035,6.258-0.035l-7.084-0.142c6.758-0.192-0.724-0.472,8.167-0.368
							c-1.807,0.038,6.681,0.005,10.163,0.225c0,0-0.021,0.001-0.022,0.001c3.305-0.119,6.703-0.244,11.644-0.151
							c1.282,0.119-1.033,0.413-0.199,0.492c3.26-0.312,15.645-0.086,19.773-0.419c-1.376,0.078-1.448,0.274-0.995,0.314
							l2.735-0.254c3.095,0.081,3.548,0.12,3.045,0.276c9.306,0.047-2.956-0.474,8.091-0.27c-0.868,0.021-0.453,0.059-2.261,0.098
							c11.097,0.105,21.437-0.161,31.632-0.037c3.007,0.376-8.908,0.093-5.465,0.409c14.699-0.067,30.438-0.45,44.662-0.361
							l-2.652-0.042c1.973-0.53,10.594,0.262,17.789,0.012c-1.763,0.04-2.31,0.295-1.835,0.236
							c9.743,0.085,19.917-0.131,34.677-0.298l-1.829,0.137c5.742,0.121,15.12,0.069,21.32,0.132
							c1.84-0.136,5.388-0.114,3.233-0.312c19.121,0.776,36.473-0.416,53.438,0.23c-2.028,0.002-4.836,0.119-3.222,0.12
							l14.451-0.126c-1.144-0.23-1.896-0.14-4.929-0.319c1.829-0.137,5.907-0.243,9.488-0.243c-6.499,0.153,0.055,0.371,2.862,0.5
							c-0.47-0.07,0.492-0.148,0.254-0.221c7.549,0.411,1.266-0.465,11.572-0.188l-0.547,0.122
							c3.857-0.062,7.411-0.223,11.572-0.188c1.724,0.268-4.106,0.125-4.371,0.345c5.841-0.016,11.527-0.506,16.816-0.24
							c-2.482,0.044-6.05,0.106-8.532,0.15c5.758,0.313,6.427,0.234,10.704,0.283l-0.42-0.007l9.892,0.143l-2.52-0.085
							c7.311-0.697,14.887-0.128,24.735-0.584c-9.571,0.432-1.581,0.25-2.315,0.553c2.515,0.084,6.338,0.178,5.25,0.264
							c4.653-0.244,7.77,0.192,14.34-0.165c0.293,0.097,4.979,0.01,3.929,0.255c6.051-0.077-1.431-0.17-0.923-0.293
							c9.328-0.332,21.928,0.404,35.345-0.053c11.572-0.188,13.711-0.517,24.448-0.681c3.625,0.156-2.968,0.355-2.968,0.355
							c5.847,0.144,10.246,0.117,15.755,0.005c-1.116,0.086,0.033,0.157,1.713,0.267c4.421-0.025,2.957-0.354,8.787-0.211
							c-1,0.108-2.282,0.282-4.416,0.392c5.21-0.119,10.357-0.236,15.75-0.359c1.432,0.17-3.255,0.258-5.156,0.368
							c6.062-0.076,15.706-0.153,17.579-0.423l-3.89-0.096c2.21-0.014,1.138,0.23-0.492,0.28c-5.195,0.211-7.494-0.093-7.787-0.191
							l3.841-0.062c-3.946-0.572-15.429,0.092-23.16,0.059l3.222-0.416l-7.93,0.345c-1.686-0.107-2.84-0.34,0.978-0.402
							c-5.542-0.205-4.907,0.148-9.67-0.081c-0.525-0.036-0.288-0.056,0.199-0.072l-5.416,0.124
							c1.061-0.088-0.901-0.294,2.426-0.234c-9.721-0.239-15.678,0.312-19.336-0.003l0.812-0.025
							c-13.489,0.141-1.304,0.306-11.422,0.664l-6.809-0.753l-1.326,0.305c-1.393-0.011-4.145-0.034-3.636-0.156
							c-5.178,0.209,0.884,0.133-2.122,0.33c-6.698-0.277-18.468,0.131-19.977-0.355c-2.404,0.231,6.405,0.179-0.746,0.34
							c-2.039-0.523-8.267,0.09-14.385-0.15c1.879-0.27,7.676-0.127,1.553-0.368c-3.692,0.456-11.915-0.1-17.076-0.013
							c-0.243,0.363-11.224,0.152-19.883,0.272c0.547-0.122-16.296-0.199-24.354-0.331l0.237-0.061
							c-1.558,0.367-9.87,0.298-15.921,0.374c0.238-0.22,1.326-0.307,4.604-0.405l-5.687,0.002c-1.343,0.117-3.117,0.18-6.808,0.222
							l1.431-0.274c-7.571,0.016-15.247,0.323-24.989,0.14c-0.547,0.257,7.748,0.714-2.553,0.884
							c-0.381-0.138-0.763-0.375,1.934-0.432c-0.884,0.018-3.15,0.115-4.929,0.057l4.117-0.233
							c-4.438-0.103-2.321,0.194-5.869,0.173c0.072-0.197-2.625-0.141-2.117-0.298c0.906-0.019,3.095,0.082,4.454,0.005
							c-4.001-0.036-8.836-0.152-10.433-0.303c0.348,0.112,0,0.266-2.929,0.292c-7.571,0.015-2.592-0.237-7.007-0.339
							c-1.835,0.137-6.665-0.006-6.792,0.29c-2.216-0.002-2.625-0.14-3.481-0.22c-3.918,0.131-18.303,0.037-13.887,0.352
							l1.006,0.021c-0.188,0.004-0.409,0.009-0.641,0.013c0.033,0,0,0,0.033,0h-0.033c-12.843,0.294-26.681-0.167-39.424-0.041
							l0.022-0.098c-7.61,0.112-16.933,0.066-22.365,0.278c-2.249,0-5.311-0.181-4.349-0.298c-5.813,0.074-6.466,0.186-14.865,0.022
							c5.847-0.173-2.017-0.152,5.99-0.126c-7.554-0.086-9.268-0.244-17.38,0.026c2.763-0.253-5.687-0.318-9.278-0.243l5.294,0.182
							c-4.04,0.036-7.571,0.014-11.157-0.008l1.939-0.332c-15.462-0.405-27.885,0.688-39.656,0.011
							c-4.089,0.232,8.4,0.164,4.742,0.437c-7.112-0.045-14.523-0.523-16.75-0.523c-9.743-0.185-9.091,0.485-19.287,0.359
							c1.304,0.119,2.537,0.436-5.084,0.547c-7.118-0.043-8.748-0.497-4.255-0.593c1.708-0.01,2.531,0.028,2.459,0.068
							c2.299-0.044,5.316-0.095,2.498-0.223l-0.923,0.118c-1.782-0.045-5.059-0.122-7.736-0.089
							c-2.71,0.085-4.629,0.571-3.469,0.215c-2.75,0.625-3.262,0.987-2.669,0.805c0.603-0.141,2.383-0.625,4.445-0.812
							c-2.36,0.225-4.42,0.782-6.269,1.494c-1.856,0.706-3.49,1.609-5.041,2.63c-1.555,1.017-3.02,2.18-4.466,3.557
							c-1.451,1.373-2.907,2.942-4.382,4.842c0.996-1.165,1.985-2.162,1.036-0.981c-2.215,2.728-3.297,4.588-3.986,5.784
							c-0.675,1.207-0.92,1.79-1.122,2.234c-0.32,0.927-0.556,1.281-2.274,5.668c-0.996,2.484-0.922,2.007-1.003,2.018
							c-0.035,0.008-0.119,0.137-0.338,0.843c-0.228,0.703-0.628,1.975-1.158,4.295c-1.346,5.657-0.629,1.132-0.134-1.151
							c-0.998,4.251-1.603,8.277-1.959,11.862c-0.171,1.794-0.273,3.477-0.323,5.023c-0.052,1.534-0.073,2.905-0.087,4.131
							c0,0-0.024-1.127-0.048-2.255c-0.031-1.119-0.034-2.271-0.034-2.271c0.029,2.73,0.047,4.917,0.041,7.174l0.237-2.575
							c-0.042,2.646-0.042,4.891-0.141,4.841c0.155,2.729,0.395-2.089,0.607,3.327c-0.121,3.53,0.129,10.754-0.186,11.975
							c0.107-11.107-0.316,1.228-0.367-8.173c0.038,1.812,0.036,4.023-0.006,6.681c-0.035,0.398-0.065-0.376-0.083-1.1
							c-0.281,10.627,0.356,4.886,0.349,15.899c-0.177-1.398-0.336,2.553-0.299,4.349c0.004-4.438,0.296-2.122,0.433,1.951
							c-0.139,7.062,0.103,7.676,0.086,11.372l0.065-4.222c0.178,1.432,0.154,4.963,0.21,9.887c-0.138,0.42-0.095-4.471-0.156-2.714
							c0.312,5.466-0.323,12.352-0.113,19.972c-0.12,3.531-0.333,0.343-0.415,3.443c0.23,8.543-0.243,9.251-0.053,18.23
							c0.238-2.586,0.18-3.039,0.413,3.282l-0.168-14.76l0.347,9.472c0.003-4.454-0.15-9.4-0.109-12.069
							c0.194,4.515,0.135,4.051,0.333,1.918c-0.358,6.096,0.208,12.086-0.033,19.131l-0.591-0.215
							c-0.263,10.594,0.303,18.822,0.154,32.576l0.103-4.42c0.235,1.846,0.033,8.493,0.128,12.947
							c-0.198-0.414-0.269,2.371-0.392,4.271c0.146-0.231-0.014,10.069,0.381,11.318l-0.26,6.139
							c-0.106,11.108,0.562,12.678,0.495,23.354c-0.215-3.217-0.354,1.636-0.508-5.516c-0.002,3.564-0.038,6.77,0.099,6.825
							c-0.124,2.083,0.266,9.887,0.078,13.163c0.087,1.503,0.294,1.995,0.277,5.996c-0.04,0.437-0.098-0.017-0.098-0.017
							c0.098,0.017,0.133,6.267,0.352,2.769c-0.616,10.98,0.044,30.692-0.484,40.253c0.046,7.781,0.102,17.153,0.144,24.216
							c-0.059-0.453-0.098-0.022-0.078-1.36c-0.184,9.743,0.566,5.991,0.361,17.076c-0.319,5.664-0.172-5.885-0.293-2.354
							c-0.65,1.536,0.088,13.379-0.291,20.839l-0.038-1.808c-0.221,5.703,0.246,13.916,0.2,23.232c0,0-0.057-0.453-0.098-0.055
							c0.331,6.371,0.441,18.436,0.533,27.398c-0.254-2.791-0.135-4.072-0.393-2.371c0.037,4.018,0.415-1.177,0.487,6.842
							c-0.139,2.608-0.261,8.395-0.536,9.162l-0.015-7.564c-0.357,3.873,0.012,9.792-0.05,13.776l-0.156-0.509
							c0.051,11.594,0.443,11.754,0.416,24.216l0.118-1.288c0.197,3.405,0.135,4.83,0.078,6.258
							c-0.036,1.43-0.147,2.877,0.305,6.268c0,0-0.062,0.524-0.098,1.049c-0.035,0.527-0.07,1.054-0.07,1.054
							c0.319,2.247,1.038,6.173,2.376,10.388c1.331,4.215,3.315,8.681,5.423,12.146c-1.289-1.903-3.004-5.014-4.348-8.464
							c-1.362-3.442-2.393-7.181-3.002-10.075c0.381,2.225,1.274,5.971,2.5,9.326c1.188,3.371,2.713,6.314,3.345,7.309
							c-0.868-1.598-1.93-3.642-2.502-5.351c1.152,2.522,2.605,5.382,4.566,8.431c1.991,3.02,4.492,6.256,7.898,9.177
							c-0.418-0.126,0.43,0.831,2.222,2.19c1.794,1.338,4.63,2.985,8.004,3.959c1.678,0.506,3.488,0.781,5.276,0.898
							c1.815,0.099,3.467,0.046,5.083,0.087c3.197,0.042,5.948,0.118,7.558,0.267c15.7-0.283,31.146,0.12,49.437,0.075
							c-6.488-0.596,5.338-0.017,4.216-0.629c4.261-0.038,5.886-0.028,6.267,0.011l12.909,0.365c3.062,0.178-4.05,0.135-3.658,0.272
							c9.328,0.047,3.913,0.259,10.085,0.421c-1.266-0.219,3.244-0.312,8.56-0.229l-7.488-0.282
							c13.037-0.325,11.268,0.514,24.409,0.191l-4.155,0.192c6.742-0.113,24.873,0.004,31.482-0.487
							c1.194,0.07,2.769,0.238-0.199,0.282c16.114,0.073,35.87-0.522,48.393-0.221l-1.221,0.149c3.006-0.043,5.233-0.281,8.997-0.13
							c-0.193,0.062-1.21,0.149,0.182,0.157c1.592-0.051,7.985-0.262,11.97-0.174l-3.404,0.168
							c15.716,0.195,24.122-0.41,37.302-0.513c-0.033,0.44,12.334,0.583,18.507,0.655l-0.216,0.062
							c18.303,0.055,31.09-0.364,48.039-0.537c10.522,0.478,35.639,0.2,52.548,0.468c-2.586-0.08,0.42-0.343,3.426-0.387
							c3.968,0.089,10.97-0.306,10.34,0.098l-1.415-0.008c2.99,0.396,11.146,0.291,17.513,0.302l1.05-0.528
							c16.656,0.769,43.641-0.282,52.731,0.406c4.019-0.082,8.995-0.182,12.981-0.263l-0.216,0.283
							c11.136,0.072,16.695,0.107,30.46,0.04l-2.807,0.203c3.882,0.009,6.333-0.195,8.708-0.404
							c1.188-0.104,2.357-0.209,3.676-0.289c0.649-0.028,1.387-0.106,2.16-0.156c0.773-0.102,1.614-0.165,2.517-0.352
							c0,0,0.568,0,1.137,0.002c0.569-0.039,1.138-0.078,1.138-0.078c3.423-0.927,6.626-2.582,9.443-4.694
							c2.838-2.097,5.284-4.669,7.399-7.448c4.206-5.599,6.996-12.105,8.524-18.735c-0.016,0.229,0.051,0.665-0.592,2.812
							c1.025-3.089,2.465-9.249,2.795-14.428c0.2-2.576,0.205-4.912,0.147-6.396c-0.056-1.488-0.147-2.197-0.292-1.618
							c0.189-0.08,0.198-3.574,0.139-7.963c-0.088-4.388-0.195-9.671-0.269-13.329l0.279,1.138
							c-0.356-6.172-0.454-6.371-0.552-14.992c0.037-2.045,0.224-1.791,0.152,0.923c0.146-6.808-0.264-5.306-0.116-13.562
							l0.178,3.078c0.021-7.007-0.074-6.449-0.282-10.307c-0.112-4.404,0.07-13.29,0.322-14.323
							c-0.154-0.945-0.359-4.78-0.287-8.908c0.096-0.558,0.154,0.945,0.184,1.702c0.189-11.716-0.324-17.419-0.051-25.476
							c0.093-0.166,0.139-0.69,0.167-1.359c-0.007,9.306-0.022,16.8-0.042,16.098c0.257,0,0.302-7.516,0.657-1.536
							c-0.194-6.035-0.615-16.353-0.494-23.68c0.025-0.354,0.05-0.702,0.089-0.968l0.029,0.758c0.025-1.691,0.001-3.206-0.042-4.632
							c0.042-2.337,0.074-3.823,0.077-6.067c0.213-0.867,0.115-8.62,0.125-12.367c-0.281,0.31-0.236-4.599-0.468,0
							c0.02-0.597,0.034,0.707,0.045,3.199c0.01,0.563,0.022,1.227,0.029,1.597c-0.007-0.071-0.015-0.16-0.024-0.254
							c0.005,2.459,0.012,5.67,0.019,9.317c-0.143-2.962-0.263-6.057-0.106-10.201c-0.167-1.925-0.351-4.041-0.454-5.233
							c0.393-5.129,0.604-15.015,0.846-16.391c-0.157-11.445-0.104-26.963-0.632-34.157c-0.068-3.255,0.151-3.741,0.234-4.957
							c0.053,1.879,0.045,4.111,0.121,5.128c-0.136-6.504-0.053-19.275-0.422-20.828c0.167-8.201,0.34,4.609,0.279-6.659
							l0.113,1.521c0.589-22.166-0.942-36.037-0.185-60.611c-0.046,1.701-0.067,2.553-0.129,2.9
							c0.333-28.018-0.313-57.737,0.216-85.385c0.106-7.857-0.129-8.709-0.309-13.506l0.302-1.702l-0.348-8.2
							c-0.128-5.814,0.058-10.849,0.214-16.27c0.079-2.711,0.15-5.518,0.171-8.567c0.013-3.033,0.052-6.374-0.407-10.07
							c0,0-0.009,0.481-0.019,0.963c-0.005,0.481-0.041,0.962-0.042,0.962c-0.124-2.658-0.641-6.852-1.399-10.207
							c-0.723-3.363-1.574-5.894-1.32-5.506c-0.193-0.514-0.717-1.604-1.358-3.586l0.088-0.207c0,0-1.226-3.053-2.855-5.9
							c-1.583-2.877-3.592-5.472-3.591-5.472c-1.486-2.057-2.27-2.935-2.582-3.407c-0.331-0.457-0.247-0.465-0.256-0.584
							c-0.013-0.117-0.125-0.343-0.896-1.212c-0.819-0.813-2.244-2.374-5.435-4.449c-2.383-1.518-6.2-3.021-9.238-3.37
							c-1.506-0.225-2.787-0.233-3.548-0.198c-0.763,0.024-1.007,0.066-0.489,0.106c1.123,0.023,2.555,0.151,3.7,0.407
							c1.15,0.229,2.007,0.547,2.067,0.642c0,0-0.306-0.074-0.764-0.186c-0.46-0.104-1.084-0.19-1.702-0.3
							c-0.623-0.078-1.25-0.124-1.717-0.172c-0.47-0.014-0.783-0.022-0.783-0.022c-0.466,0.206-1.639,0.422-1.184,0.649
							c0.233,0.115,0.851,0.218,2.137,0.408c1.277,0.214,3.236,0.562,5.947,1.654c0,0,0.478,0.179,1.193,0.447
							c0.704,0.299,1.648,0.7,2.546,1.203c1.818,0.966,3.487,2.214,3.487,2.214s0.476,0.473,0.951,0.945
							c0.474,0.472,0.91,0.98,0.91,0.98s-0.319-0.295-0.798-0.737c-0.507-0.407-1.147-0.999-1.855-1.496
							c-1.372-1.062-2.882-1.9-2.882-1.9c1.638,1.07,2.92,2.021,4.058,2.941c1.153,0.897,2.146,1.783,3.164,2.757
							c0.358,0.576,1.086,1.484,2.053,2.814c0,0,0.343,0.376,0.815,0.979c0.493,0.587,1.101,1.408,1.703,2.24
							c1.185,1.676,2.23,3.461,2.23,3.461c0.152,0.482-0.361-0.293-0.602-0.566c-0.262-0.264-0.148-0.086,0.993,2.413
							c1.764,3.429-1.12-3.568,1.578,2.237c0.657,1.911,0.776,2.623,1,3.391c0.115,0.383,0.236,0.785,0.413,1.375
							c0.194,0.585,0.454,1.354,0.793,2.484c0.045,0.675-0.25-0.284-0.842-2.051c0.682,1.98,1.376,4.672,1.839,7.154
							c0.453,2.484,0.759,4.737,0.956,5.812c0.091,2.115,0.199,5.624,0.157,8.667c-0.006,3.02-0.034,5.454-0.254,5.244
							c0.105,1.343,0.346,7.521,0.364,11.444c-0.527-7.167-0.031,14.684-0.597,12.788c0.475,5.305,0.211,19.159,0.474,28.554
							c-0.037-0.525-0.114-1.559-0.089-2.388c-0.04,5.289-0.183,6.825-0.272,10.224c0.392,0.68,0.481,8.914,0.723,13.352
							c-0.378,6.482-0.46-3.935-0.823-1.901c0.318-0.326,0.317,11.263,0.582,9.058c-0.234,4.957-0.114,4.271-0.438,6.824
							c0.49,0.868,0.083,4.615,0.384,8.727c-0.241,7.173-0.459,1.846-0.31,9.726
							C-2048.642,1696.447-2048.815,1689.439-2048.815,1689.439z M-2047.968,1876.844h-0.006c-0.007-1.613-0.012-2.989-0.016-3.868
							C-2047.985,1873.782-2047.979,1874.898-2047.968,1876.844z M-2047.964,1892.594c0.003-1.918,0.007-4.305,0.011-6.83
							c0.097-0.553,0.197,0.044,0.192,1.63C-2047.826,1886.531-2047.882,1890.245-2047.964,1892.594z M-2046.016,1859.281
							c0.04,2.492-0.016,3.327-0.073,3.67c-0.009-1.177-0.02-2.553-0.033-4.36c-0.009-0.072-0.026-0.221-0.035-0.293
							C-2046.103,1858.535-2046.053,1858.807-2046.016,1859.281z"/>
						<path style="fill:#212D20;" d="M-2046.384,1854.8c-0.007-0.358-0.011-0.558-0.021-1.027c-0.021,0.509-0.042,0.995-0.063,1.486
							c0.03,0.304,0.061,0.613,0.088,0.884C-2046.381,1855.689-2046.383,1855.22-2046.384,1854.8z"/>
						<path style="fill:#212D20;" d="M-2393.183,1530.205l-0.332-0.006c0.276,0.011,0.53,0.021,0.696,0.039
							C-2393.039,1530.219-2393.04,1530.219-2393.183,1530.205z"/>
						<polygon style="fill:#212D20;" points="-2136.378,2036.359 -2136.356,2036.431 -2134.98,2036.369 						"/>
						<path style="fill:#212D20;" d="M-2306.444,1531.17c0.166,0.024,0.492,0.051,1.139,0.072
							C-2305.355,1531.224-2305.847,1531.197-2306.444,1531.17z"/>
						<path style="fill:#212D20;" d="M-2268.977,1531.232l5.3,0.101C-2265.971,1531.29-2267.64,1531.258-2268.977,1531.232z"/>
						<path style="fill:#212D20;" d="M-2240.168,1531.372c0.365-0.049,0.47-0.086,0.563-0.12c-0.022-0.001-0.039-0.002-0.055-0.002
							L-2240.168,1531.372z"/>
						<path style="fill:#212D20;" d="M-2613.112,1631.38c0.004,0.387,0.009,0.769,0.013,1.11
							C-2613.045,1635.099-2613.066,1633.325-2613.112,1631.38z"/>
						<path style="fill:#212D20;" d="M-2561.897,1531.046c-1.448,0.044-2.874,0.087-4.382,0.133
							C-2563.854,1531.2-2561.969,1531.206-2561.897,1531.046z"/>
						<path style="fill:#212D20;" d="M-2612.773,1783.588c-0.002-0.017-0.002,0-0.005-0.017c0,0.325,0,0.613,0,0.939
							L-2612.773,1783.588z"/>
						<path style="fill:#212D20;" d="M-2572.618,1531.174c2.426,0.057,4.454,0.044,6.338,0.005
							C-2568.269,1531.16-2570.612,1531.131-2572.618,1531.174z"/>
						<path style="fill:#212D20;" d="M-2115.31,1531.5l1.387,0.012c-0.022-0.019,0.061-0.034,0.166-0.045L-2115.31,1531.5z"/>
						<path style="fill:#212D20;" d="M-2113.757,1531.467l1.542-0.033C-2112.923,1531.434-2113.536,1531.436-2113.757,1531.467z"/>
						<path style="fill:#212D20;" d="M-2108.972,1531.362l-3.244,0.071C-2111.094,1531.434-2109.707,1531.442-2108.972,1531.362z"/>
						<path style="fill:#212D20;" d="M-2153.446,1531.37l-0.437,0.102C-2153.645,1531.451-2153.49,1531.418-2153.446,1531.37z"/>
						<path style="fill:#212D20;" d="M-2165.035,1531.399c2.763,0.023,6.936,0.218,10.792,0.153l0.359-0.081
							C-2155.695,1531.623-2162.41,1531.228-2165.035,1531.399z"/>
						<path style="fill:#212D20;" d="M-2213.405,1530.14l9.709,0.081c-1.697-0.108-3.929-0.254,0.486-0.28
							C-2215.45,1529.616-2200.684,1530.184-2213.405,1530.14z"/>
						<path style="fill:#212D20;" d="M-2243.518,1529.982c5.217-0.051-0.061-0.158,0.216-0.22
							C-2246.612,1529.861-2247.414,1529.887-2243.518,1529.982z"/>
						<path style="fill:#212D20;" d="M-2461.122,1529.98l0.525-0.256C-2464.62,1529.762-2460.636,1529.824-2461.122,1529.98z"/>
						<polygon style="fill:#212D20;" points="-2502.718,1531.303 -2498.805,1531.462 -2496.942,1531.228 						"/>
						<polygon style="fill:#212D20;" points="-2527.292,1529.48 -2525.535,1529.444 -2532.244,1529.537 						"/>
						<path style="fill:#212D20;" d="M-2615.243,1825.93l0.315-1.217C-2614.984,1821.994-2615.338,1821.426-2615.243,1825.93z"/>
						<path style="fill:#212D20;" d="M-2614.922,1983.701c-0.142,1.726-0.3,6.139-0.044,8.924
							C-2615.058,1989.018-2614.858,1985.521-2614.922,1983.701z"/>
						<polygon style="fill:#212D20;" points="-2178.222,2038.887 -2181.394,2038.992 -2175.415,2038.904 						"/>
					</g>
				</g>
			</g>
		</g>
	</g>
	<path style="stroke:#000000;stroke-miterlimit:10;" d="M34.444,410.76l154.161-6.101c2.612-0.104,4.721-2.324,4.692-4.934
		l-0.482-47.133c-0.028-2.607-1.8-5.97-3.933-7.465l-91.477-63.211c-2.137-1.499-2.148-2.811,0.458-2.921l46.315-2.133
		c0,0,3.32,0.072,3.32-2.3v-10.971c0-1.93-3.522-3.439-3.522-3.439l-43.622-33.963c-2.049-1.612-1.535-2.938,1.076-2.948
		l89.962-0.821c2.612-0.028,7.106-2.826,7.106-5.434V121.6c0-5.338-1.639-6.92-4.38-9.355l-18.304-16.342
		c-4.07-3.462-10.316-3.264-10.316,2.963v43.597c0,2.241-3.893,3.264-5.728,2.133L86.22,93.226c0,0-34.696-22.611-27.29-39.038
		c2.953-6.533,11.908-6.917,24.363,3.757l36.216,29.258c2.06,1.602,3.991,0.624,3.991-1.984V58.002c0-3.615-0.244-4.176-1.872-5.497
		L79.406,17.493c-14.35-10.948-31.009-7.094-41.138,8.164C26.751,43.015,21.736,81.95,50.166,106.921l0.307,0.679
		c1.23,1.249,1.992,4.129,1.999,6.738l0.06,66.869c0.004,2.609-2.184,4.84-4.794,4.863l-13.618,0.157
		c-2.605,0.024-4.771,2.194-4.785,4.804l-0.08,16.413c-0.012,2.609,1.657,6.065,3.714,7.673l34.941,27.314
		c2.058,1.605,1.605,2.917-1.007,2.914l-32.875-0.037c-2.609-0.004-4.742,2.129-4.741,4.736l0.024,23.86
		c0.002,2.609,1.783,5.924,3.957,7.366l15.416,10.217c2.175,1.444,3.961,4.759,3.968,7.367l0.192,66.229
		c0.011,2.61-2.121,4.756-4.729,4.771l-13.77,0.073c-2.61,0.014-4.739,2.163-4.729,4.769l0.077,31.509
		C29.697,408.814,31.836,410.864,34.444,410.76z M73.681,181.174l-0.128-51.546c-0.008-2.608,1.773-3.575,3.954-2.139l41.263,27.062
		c2.182,1.431,5.755,3.774,7.937,5.205l34.701,22.754c2.185,1.434,1.833,2.622-0.778,2.643l-33.078,0.295
		c-2.607,0.021-6.877,0.061-9.489,0.081l-39.625,0.347C75.824,185.898,73.684,183.782,73.681,181.174z M74.209,365.304l-0.125-51.55
		c-0.004-2.605,1.776-3.571,3.957-2.141l83.9,55.029c2.181,1.432,1.83,2.621-0.778,2.645l-82.2,0.718
		C76.354,370.028,74.214,367.912,74.209,365.304z"/>

		
	<path style="stroke:#000000;stroke-miterlimit:10;" d="M-55.059-246.616l35.015-1.386c0.593-0.024,1.072-0.528,1.065-1.121
		l-0.109-10.706c-0.006-0.592-0.408-1.356-0.893-1.696l-20.777-14.357c-0.486-0.34-0.488-0.638,0.104-0.663l10.46-0.485
		c0,0,0.694,0.017,0.694-0.522v-2.492c0-0.438-0.74-0.781-0.74-0.781l-9.877-7.714c-0.467-0.366-0.335-0.667,0.259-0.67
		l20.589-0.187c0.594-0.006,1.77-0.642,1.77-1.234v-21.665c0-1.212-0.521-1.572-1.143-2.125l-4.336-3.712
		c-0.924-0.786-2.521-0.741-2.521,0.673v9.903c0,0.509-0.779,0.741-1.197,0.484l-16.653-11.668c0,0-7.854-5.136-6.173-8.867
		c0.67-1.484,2.718-1.571,5.547,0.854l8.398,6.646c0.467,0.364,1.078,0.142,1.078-0.451v-6.182c0-0.821-0.221-0.949-0.591-1.249
		l-9.673-7.953c-3.259-2.486-7.084-1.611-9.385,1.854c-2.617,3.942-3.776,12.786,2.681,18.458l0.06,0.154
		c0.279,0.284,0.447,0.938,0.448,1.531l0.011,15.188c0.002,0.593-0.497,1.1-1.09,1.105l-3.094,0.036
		c-0.592,0.005-1.084,0.498-1.087,1.091l-0.019,3.728c-0.002,0.593,0.377,1.377,0.844,1.743l7.937,6.204
		c0.468,0.365,0.364,0.663-0.229,0.662l-7.468-0.008c-0.592-0.001-1.076,0.484-1.076,1.076l0.006,5.419
		c0,0.593,0.404,1.346,0.898,1.673l3.501,2.32c0.494,0.328,0.899,1.081,0.901,1.673l0.044,15.043
		c0.003,0.593-0.481,1.08-1.074,1.083l-3.128,0.017c-0.593,0.003-1.076,0.491-1.074,1.083l0.018,7.157
		C-56.138-247.058-55.651-246.592-55.059-246.616z M-46.147-298.763l-0.028-11.708c-0.002-0.592,0.402-0.812,0.897-0.486
		l9.372,6.146c0.496,0.325,1.308,0.857,1.803,1.183l7.882,5.168c0.496,0.326,0.417,0.596-0.177,0.6l-7.514,0.067
		c-0.592,0.004-1.562,0.014-2.154,0.019l-9,0.079C-45.66-297.69-46.146-298.17-46.147-298.763z M-46.027-256.94l-0.028-11.709
		c-0.001-0.592,0.403-0.811,0.899-0.486l19.057,12.499c0.494,0.325,0.415,0.595-0.178,0.601l-18.67,0.163
		C-45.54-255.868-46.026-256.348-46.027-256.94z"/>
</g>
</svg>
