<svg width="763" height="709" viewBox="0 0 763 709" fill="none" xmlns="http://www.w3.org/2000/svg">
<path fill-rule="evenodd" clip-rule="evenodd" d="M376.409 708.998C358.11 708.285 340.037 699.066 322.563 689.021C226.756 633.895 35.1584 522.768 29.9178 519.717C-16.7759 494.199 -2.69603 463.682 30.4802 446.531C36.154 443.614 89.3531 412.522 118.711 395.412C126.925 390.621 134.862 390.304 143.067 395.093C155.318 402.235 167.717 409.163 179.864 416.485C189.093 422.041 189.074 425.882 179.556 431.486C153.465 446.801 127.167 461.779 101.017 476.974C90.7236 482.954 90.6784 486.048 100.923 491.948C189.55 543.096 278.212 594.15 366.863 645.276C375.077 650.033 383.162 649.992 391.281 645.276C488.576 589.01 585.874 532.703 683.129 476.347C693.005 470.636 693.005 467.585 683.267 461.924C594.784 410.468 506.28 359.129 417.875 307.566C408.447 302.047 406.322 300.009 396.27 305.412C393.736 306.812 378.643 315.574 378.266 315.807C365.522 323.166 365.522 323.166 356.754 304.397C347.419 283.652 333.456 253.27 324.287 232.448C317.445 217.058 317.445 217.058 333.928 218.721C386.821 224.023 479.747 237.924 489.603 239.12C496.234 239.932 497.206 240.96 497.665 244.013C498.13 247.608 492.058 250.142 491.228 250.603C489.802 251.413 477.37 258.604 475.536 259.666C467.766 264.147 468.27 268.901 475.248 272.908C513.63 295.257 552.131 317.496 590.591 339.696C633.925 364.694 677.393 389.512 720.684 414.626C742.278 427.151 763.288 445.403 762.997 471.2C762.708 496.511 741.623 514.152 720.303 526.385C624.108 581.55 527.897 636.734 431.623 691.766C415.384 701.04 398.494 709.155 376.409 708.998Z" fill="#F0F0F0"/>
<path fill-rule="evenodd" clip-rule="evenodd" d="M387.61 0.00119355C405.843 0.716391 423.89 9.95149 441.258 19.9901C536.831 75.1293 727.94 186.237 733.143 189.277C779.738 214.791 765.688 245.331 732.606 262.481C726.937 265.398 673.889 296.487 644.606 313.589C636.413 318.378 628.492 318.699 620.318 313.904C608.094 306.754 595.74 299.828 583.593 292.517C574.399 286.959 574.399 283.107 583.907 277.524C609.948 262.212 636.164 247.227 662.246 232.029C672.5 226.053 672.578 222.973 662.341 217.055C573.958 165.921 485.516 114.851 397.131 63.7076C388.942 58.9705 380.849 59.0201 372.748 63.7163C275.722 120.01 178.658 176.295 81.6576 232.656C71.8273 238.364 71.8488 241.432 81.5437 247.093C169.752 298.534 258.04 349.875 346.21 401.436C355.65 406.951 357.741 408.986 367.782 403.59C370.285 402.188 385.315 393.424 385.757 393.185C398.442 385.833 398.442 385.833 407.191 404.613C416.506 425.343 430.426 455.739 439.579 476.551C446.383 491.949 446.383 491.949 429.957 490.269C377.21 484.97 284.497 471.054 274.701 469.873C268.073 469.05 267.091 468.038 266.667 464.996C266.156 461.392 272.221 458.859 273.072 458.395C274.482 457.585 286.865 450.393 288.709 449.346C296.476 444.865 295.965 440.108 289.038 436.102C250.703 413.737 212.332 391.505 173.943 369.304C130.706 344.313 87.3723 319.505 44.2169 294.393C22.6843 281.854 1.72337 263.605 2.00276 237.807C2.31009 212.499 23.3419 194.854 44.5822 182.637C140.551 127.464 236.473 72.2598 332.524 17.2564C348.749 7.98039 365.566 -0.11298 387.61 0.00119355Z" fill="#F0F0F0"/>
</svg>
