<svg width="41" height="45" viewBox="0 0 41 45" fill="none" xmlns="http://www.w3.org/2000/svg">
<path fill-rule="evenodd" clip-rule="evenodd" d="M0.0106775 22.4956C0.0106775 19.7354 -0.0161597 16.974 0.0193468 14.2141C0.0471987 12.0329 1.02109 10.2768 2.87205 9.17874C7.69753 6.31525 12.559 3.5107 17.4502 0.761107C19.2456 -0.24894 21.2239 -0.255949 23.0199 0.753636C27.9392 3.52029 32.8286 6.34006 37.6787 9.22495C39.481 10.2966 40.4382 12.0383 40.4527 14.1538C40.4899 19.7069 40.487 25.2608 40.4547 30.8148C40.4423 32.9739 39.4636 34.7225 37.6273 35.8127C32.8022 38.6764 27.9423 41.4817 23.0537 44.2345C21.2397 45.2552 19.253 45.2552 17.4403 44.2345C12.5237 41.4659 7.63057 38.6517 2.7836 35.7614C0.987431 34.691 0.0509798 32.9473 0.0208223 30.8264C-0.019111 28.05 0.0106775 25.2725 0.0106775 22.4956ZM39.0201 22.4841C39.0201 19.7551 39.0533 17.0258 39.0078 14.2977C38.9803 12.6175 38.2334 11.2494 36.7743 10.3941C32.013 7.60742 27.2392 4.84362 22.4471 2.111C21.0171 1.29573 19.4801 1.28956 18.0445 2.10897C13.2539 4.84362 8.47756 7.60391 3.71627 10.3895C2.23874 11.2532 1.47705 12.633 1.46783 14.3325C1.43758 19.7741 1.43961 25.2163 1.46617 30.6575C1.47438 32.3839 2.25986 33.7695 3.74597 34.6398C8.49204 37.4174 13.2558 40.1663 18.035 42.8886C19.4847 43.7139 21.0304 43.7056 22.4822 42.8754C27.2152 40.1703 31.9312 37.4349 36.6452 34.6951C38.2129 33.7843 38.9955 32.374 39.0138 30.5748C39.0391 27.8784 39.0201 25.1816 39.0201 22.4841Z" fill="url(#paint0_radial_307_502)"/>
<path fill-rule="evenodd" clip-rule="evenodd" d="M20.0223 37.674C19.2392 37.6435 18.4657 37.2489 17.7178 36.8188C13.6174 34.4589 5.41733 29.7016 5.19303 29.571C3.19461 28.4786 3.79721 27.1721 5.21711 26.4379C5.45993 26.313 7.73678 24.982 8.99325 24.2495C9.34481 24.0444 9.68448 24.0308 10.0357 24.2359C10.56 24.5416 11.0906 24.8382 11.6105 25.1517C12.0055 25.3895 12.0047 25.5539 11.5973 25.7938C10.4807 26.4494 9.35514 27.0907 8.23599 27.7411C7.79543 27.9972 7.7935 28.1296 8.23194 28.3822C12.0251 30.5718 15.8196 32.7574 19.6138 34.9461C19.9653 35.1497 20.3114 35.148 20.6589 34.9461C24.8229 32.5374 28.9871 30.1269 33.1495 27.7143C33.5722 27.4698 33.5722 27.3392 33.1554 27.0969C29.3685 24.8941 25.5806 22.6963 21.797 20.4889C21.3935 20.2526 21.3026 20.1653 20.8724 20.3966C20.7639 20.4566 20.118 20.8317 20.1018 20.8416C19.5564 21.1567 19.5564 21.1567 19.1811 20.3532C18.7816 19.4651 18.184 18.1644 17.7916 17.2731C17.4988 16.6142 17.4988 16.6142 18.2042 16.6854C20.468 16.9124 24.4451 17.5075 24.8669 17.5587C25.1507 17.5935 25.1923 17.6374 25.2119 17.7681C25.2318 17.9221 24.9719 18.0305 24.9364 18.0502C24.8754 18.0849 24.3433 18.3928 24.2649 18.4382C23.9323 18.6301 23.9539 18.8336 24.2525 19.0051C25.8952 19.9619 27.543 20.9139 29.189 21.8643C31.0437 22.9345 32.904 23.9969 34.7568 25.0721C35.681 25.6083 36.5802 26.3896 36.5677 27.494C36.5554 28.5775 35.653 29.3328 34.7405 29.8564C30.6235 32.218 26.5058 34.5804 22.3854 36.9363C21.6904 37.3334 20.9675 37.6808 20.0223 37.674Z" fill="url(#paint1_radial_307_502)"/>
<path fill-rule="evenodd" clip-rule="evenodd" d="M20.5067 7.32232C21.2891 7.35294 22.0635 7.7483 22.8088 8.17807C26.91 10.5387 35.1108 15.2953 35.3341 15.4255C37.3335 16.5178 36.7307 17.8252 35.3111 18.5595C35.0678 18.6843 32.7914 20.0153 31.5348 20.7475C31.1833 20.9525 30.8433 20.9662 30.4926 20.761C29.968 20.4549 29.4379 20.1584 28.9166 19.8453C28.5221 19.6074 28.5221 19.4425 28.9301 19.2035C30.0476 18.5479 31.1726 17.9064 32.2918 17.2558C32.7318 16.9999 32.7351 16.868 32.2959 16.6147C28.5032 14.4256 24.708 12.2392 20.9152 10.0497C20.5638 9.84688 20.2165 9.849 19.8689 10.0501C15.7053 12.4601 11.5402 14.8697 7.37772 17.2826C6.95588 17.527 6.95681 17.6583 7.37283 17.9007C11.158 20.1029 14.9466 22.3009 18.7301 24.5083C19.1352 24.7444 19.2249 24.8316 19.6558 24.6005C19.7632 24.5405 20.4082 24.1653 20.4272 24.1551C20.9715 23.8403 20.9715 23.8403 21.3469 24.6444C21.7466 25.5318 22.344 26.8331 22.7368 27.7241C23.0287 28.3833 23.0287 28.3833 22.3239 28.3114C20.0604 28.0845 16.0819 27.4888 15.6615 27.4382C15.3771 27.403 15.335 27.3596 15.3168 27.2294C15.2949 27.0751 15.5551 26.9667 15.5916 26.9468C15.6521 26.9122 16.1835 26.6042 16.2627 26.5594C16.596 26.3676 16.574 26.1639 16.2768 25.9924C14.6318 25.0349 12.9852 24.0832 11.3379 23.1327C9.48248 22.0628 7.62295 21.0007 5.77107 19.9257C4.84707 19.3888 3.9476 18.6076 3.95959 17.5031C3.97278 16.4197 4.87529 15.6642 5.78675 15.1412C9.90496 12.7792 14.0211 10.4158 18.1428 8.06104C18.8391 7.66392 19.5607 7.31743 20.5067 7.32232Z" fill="url(#paint2_radial_307_502)"/>
<defs>
<radialGradient id="paint0_radial_307_502" cx="0" cy="0" r="1" gradientUnits="userSpaceOnUse" gradientTransform="translate(20.2399 22.5) scale(21.3998 21.3998)">
<stop offset="0.5" stop-color="#D80F1E"/>
<stop offset="1" stop-color="#BE1621"/>
</radialGradient>
<radialGradient id="paint1_radial_307_502" cx="0" cy="0" r="1" gradientUnits="userSpaceOnUse" gradientTransform="translate(20.2401 27.1643) scale(13.7304)">
<stop offset="0.5" stop-color="#D80F1E"/>
<stop offset="1" stop-color="#BE1621"/>
</radialGradient>
<radialGradient id="paint2_radial_307_502" cx="0" cy="0" r="1" gradientUnits="userSpaceOnUse" gradientTransform="translate(20.2875 17.8324) scale(13.7307 13.7307)">
<stop offset="0.5" stop-color="#D80F1E"/>
<stop offset="1" stop-color="#BE1621"/>
</radialGradient>
</defs>
</svg>
