<svg width="13" height="31" viewBox="0 0 13 31" fill="none" xmlns="http://www.w3.org/2000/svg">
<path d="M0.408369 30.9997L12.2407 30.5263C12.4412 30.5182 12.603 30.346 12.6008 30.1435L12.5638 26.4864C12.5617 26.2841 12.4257 26.0231 12.2619 25.9071L5.24081 21.0025C5.07679 20.8862 5.07595 20.7844 5.27597 20.7758L8.83078 20.6103C8.83078 20.6103 9.0856 20.6159 9.0856 20.4319V19.5806C9.0856 19.4309 8.81528 19.3138 8.81528 19.3138L5.46716 16.6785C5.30989 16.5535 5.34934 16.4506 5.54974 16.4498L12.4546 16.3861C12.6551 16.3839 13 16.1668 13 15.9645V8.56332C13 8.14913 12.8742 8.02638 12.6638 7.83745L11.2589 6.56944C10.9466 6.30082 10.4672 6.31618 10.4672 6.79935V10.1821C10.4672 10.356 10.1684 10.4354 10.0275 10.3476L4.38233 6.36173C4.38233 6.36173 1.71931 4.60731 2.28774 3.33271C2.51439 2.8258 3.20172 2.79601 4.15767 3.62422L6.93736 5.8944C7.09547 6.0187 7.24368 5.94281 7.24368 5.74046V3.62864C7.24368 3.34815 7.22495 3.30462 7.1 3.20212L3.85934 0.485486C2.75793 -0.363987 1.4793 -0.0649492 0.701872 1.11894C-0.182092 2.46578 -0.567008 5.48681 1.61508 7.42435L1.63864 7.47703C1.73305 7.57394 1.79153 7.79741 1.79207 7.99984L1.79668 13.1883C1.79698 13.3908 1.62905 13.5639 1.42872 13.5656L0.383501 13.5778C0.183559 13.5797 0.0173124 13.7481 0.0162379 13.9506L0.0100977 15.2241C0.00917663 15.4265 0.137278 15.6947 0.295158 15.8194L2.97698 17.9388C3.13494 18.0633 3.10017 18.1651 2.89969 18.1649L0.37644 18.162C0.176191 18.1617 0.0124771 18.3272 0.0125539 18.5295L0.014396 20.3808C0.0145495 20.5833 0.151247 20.8405 0.318108 20.9524L1.50133 21.7451C1.66827 21.8572 1.80535 22.1144 1.80589 22.3167L1.82062 27.4556C1.82147 27.6581 1.65783 27.8246 1.45766 27.8257L0.40077 27.8314C0.200445 27.8325 0.037038 27.9992 0.0378055 28.2014L0.0437156 30.6463C0.0440226 30.8487 0.208197 31.0078 0.408369 30.9997ZM3.41992 13.1858L3.4101 9.18622C3.40949 8.98386 3.54618 8.90883 3.71358 9.02025L6.88064 11.12C7.04811 11.2311 7.32235 11.4129 7.48983 11.5239L10.1532 13.2894C10.3209 13.4007 10.2939 13.4929 10.0935 13.4945L7.55468 13.5174C7.35459 13.519 7.02685 13.5221 6.82638 13.5237L3.78504 13.5506C3.58441 13.5523 3.42016 13.3881 3.41992 13.1858ZM3.46045 27.4727L3.45086 23.4729C3.45055 23.2707 3.58717 23.1958 3.75457 23.3067L10.1941 27.5765C10.3615 27.6876 10.3346 27.7799 10.1344 27.7817L3.82533 27.8375C3.62509 27.8392 3.46083 27.6751 3.46045 27.4727Z" fill="#10ace6"/>
</svg>
