<svg width="301" height="333" viewBox="0 0 301 333" fill="none" xmlns="http://www.w3.org/2000/svg">
<path d="M9 105.655C9 94.1099 17.0708 79.9379 27.0665 74.1613L132.264 13.3324C142.261 7.55586 158.59 7.55586 168.585 13.3324L273.668 74.1613C283.663 79.9379 291.671 94.1099 291.671 105.655V227.345C291.671 238.89 283.65 253.062 273.654 258.839L168.48 319.668C158.485 325.444 142.168 325.444 132.171 319.668L27.0469 258.839C17.0512 253.062 9 238.89 9 227.345V105.655Z" stroke="white" stroke-width="18" stroke-miterlimit="10"/>
<path d="M258.236 138.532L231.59 154.009C229.917 154.981 227.175 154.986 225.499 154.019L212.776 146.671C211.096 145.704 211.101 144.12 212.776 143.151L239.332 127.82C241.009 126.851 241.009 125.269 239.332 124.3L154.493 75.4228C152.817 74.4593 150.075 74.4593 148.399 75.4312L76.2043 117.204L55.7029 129.065C54.0314 130.033 54.0265 131.62 55.698 132.597L75.6669 144.221L140.413 181.907C142.089 182.879 144.854 182.923 146.554 182.004L152.854 178.603C154.562 177.683 156.604 178.379 157.39 180.147L168.941 205.95C169.731 207.714 168.808 208.951 166.889 208.69L116.147 201.831C114.229 201.573 114.034 200.578 115.715 199.619L122.604 195.69C124.291 194.732 124.295 193.157 122.619 192.189L43.1814 146.329C38.0178 142.537 34.73 136.826 34.73 130.439C34.73 123.997 38.0661 118.247 43.3011 114.46L122.359 69.0711C151.004 52.2913 151.004 52.2913 179.568 68.5428L258.9 114.657C269.296 121.867 269.935 132.571 258.236 138.532Z" fill="white" stroke="white" stroke-miterlimit="10"/>
<path d="M43.3488 194.362L69.9969 178.885C71.6684 177.912 74.4084 177.908 76.0848 178.876L88.8085 186.223C90.4905 187.191 90.4849 188.774 88.8085 189.742L62.2528 205.074C60.5778 206.041 60.5778 207.626 62.2528 208.594L147.093 257.471C148.769 258.434 151.51 258.434 153.186 257.461L225.382 215.689L245.881 203.828C247.554 202.861 247.56 201.272 245.886 200.296L225.919 188.673L161.172 150.987C159.495 150.015 156.733 149.97 155.03 150.89L148.73 154.291C147.023 155.21 144.983 154.516 144.195 152.747L132.646 126.945C131.853 125.18 132.779 123.944 134.696 124.203L185.438 131.062C187.357 131.322 187.551 132.316 185.869 133.275L178.98 137.204C177.296 138.163 177.292 139.738 178.967 140.705L258.403 186.565C263.567 190.357 266.854 196.067 266.854 202.456C266.854 208.896 263.517 214.647 258.283 218.435L179.226 263.823C150.581 280.603 150.581 280.603 122.015 264.351L42.6855 218.237C32.2876 211.026 31.6515 200.322 43.3488 194.362Z" fill="white" stroke="white" stroke-miterlimit="10"/>
</svg>
