<svg width="989" height="317" viewBox="0 0 989 317" fill="none" xmlns="http://www.w3.org/2000/svg">
<g opacity="0.9">
<path d="M372.261 162.337C380.202 167.128 393.165 171.917 407.988 171.917C423.956 171.917 434.337 165.305 437.285 155.269C440.101 145.692 434.412 140.218 417.884 133.605C394.956 124.709 382.466 110.568 389.033 88.2202C396.745 61.9912 424.54 41.9232 460.802 41.9232C478.134 41.9232 489.832 45.5701 497.751 49.6771L481.749 77.7291C476.462 74.7631 466.79 70.4301 451.738 70.4301C436.683 70.4301 427.376 77.2731 425.025 85.2531C422.146 95.0611 429.537 99.3941 447.165 106.921C471.357 116.954 479.972 131.095 473.603 152.761C466.024 178.532 439.747 200.426 397.555 200.426C379.995 200.426 364 195.864 356.743 191.073L372.261 162.337Z" fill="white"/>
<path d="M504.398 124.025C508.688 109.428 511.919 96.8851 514.482 86.6231H544.585L541.624 102.131H542.079C553.775 90.2721 568.355 84.1141 584.548 84.1141C608.954 84.1141 624.611 105.322 614.152 140.901C602.218 181.495 570.814 200.653 545.958 200.653C532.502 200.653 523.62 195.178 520.749 187.882H520.291L503.997 243.3H469.331L504.398 124.025ZM531.353 150.251C530.548 152.988 530.039 155.495 529.89 157.55C529.421 166.901 535.326 173.97 545.363 173.97C560.416 173.97 572.996 161.428 578.56 142.497C583.789 124.708 579.763 111.253 564.253 111.253C554.448 111.253 543.636 118.55 538.34 128.813C537.349 130.637 536.445 132.919 535.845 134.97L531.353 150.251Z" fill="white"/>
<path d="M675.726 86.6231L676.279 141.359C676.16 147.971 676.027 156.182 675.65 162.111H676.337C679.677 156.182 683.98 147.744 687.458 141.359L717.229 86.6231H754.407L706.819 160.061C677.846 204.304 661.899 222.093 646.067 233.269C630.893 243.759 617.051 247.409 608.05 248.548L609.403 219.129C613.934 218.443 620.014 216.393 626.198 213.199C632.25 210.462 639.558 204.988 644.657 199.287C646.262 197.689 647.483 195.865 647.955 194.268C648.289 193.129 648.596 191.303 648.035 188.567L637.181 86.6251H675.728V86.6231H675.726Z" fill="white"/>
<path d="M888.498 36.2202L850.683 164.847C846.995 177.392 843.564 190.618 841.808 198.144H811.017L814.247 181.725H813.792C803.035 194.267 787.699 200.654 773.333 200.654C746.876 200.654 732.306 178.075 742.494 143.41C753.331 105.779 783.188 84.1151 809.873 84.1151C823.56 84.1151 832.867 88.9041 835.605 96.6571H836.062L853.83 36.2202H888.498ZM825.134 133.832C825.674 132.008 826.181 129.498 826.489 127.676C827.188 118.323 821.94 110.569 811.22 110.569C795.483 110.569 783.116 124.71 777.95 142.271C772.389 161.2 778.251 173.059 792.62 173.059C802.655 173.059 812.645 166.217 817.585 156.411C819.005 153.902 819.969 151.393 820.843 148.43L825.134 133.832Z" fill="white"/>
<path d="M908.541 153.444C905.457 167.813 917.582 174.655 933.776 174.655C945.637 174.655 955.686 173.058 965.908 170.093L963.561 193.582C950.818 198.144 936.234 200.425 921.182 200.425C883.324 200.425 868.094 178.531 878.353 143.637C886.665 115.357 913.412 84.1141 952.18 84.1141C988.217 84.1141 993.653 112.166 985.541 139.76C983.799 145.691 981.569 150.936 980.379 153.444H908.541ZM956.34 129.727C958.819 121.289 959.323 107.148 943.36 107.148C928.765 107.148 918.946 120.377 915.286 129.727H956.34Z" fill="white"/>
</g>
<path d="M320.44 118.357L282.356 140.477C279.966 141.867 276.046 141.873 273.652 140.492L255.468 129.99C253.066 128.607 253.072 126.344 255.468 124.959L293.422 103.047C295.818 101.664 295.818 99.4012 293.422 98.0172L172.168 28.1611C169.772 26.7841 165.853 26.7842 163.458 28.1732L60.275 87.8762L30.974 104.827C28.585 106.212 28.578 108.48 30.967 109.876L59.507 126.489L152.044 180.351C154.439 181.74 158.39 181.802 160.82 180.488L169.824 175.628C172.265 174.314 175.183 175.308 176.306 177.834L192.815 214.713C193.945 217.234 192.626 219.002 189.882 218.63L117.361 208.826C114.621 208.455 114.341 207.034 116.743 205.663L126.591 200.049C129.001 198.678 129.007 196.428 126.612 195.045L13.079 129.501C5.69899 124.081 1 115.919 1 106.79C1 97.5832 5.768 89.3651 13.25 83.9521L126.242 19.0811C167.18 -4.89989 167.18 -4.89985 208.006 18.3271L321.389 84.2341C336.248 94.5391 337.16 109.837 320.44 118.357Z" fill="white" stroke="white" stroke-miterlimit="10"/>
<path d="M13.3181 198.151L51.4041 176.03C53.7941 174.64 57.7101 174.634 60.1051 176.017L78.2911 186.517C80.6941 187.9 80.6871 190.163 78.2911 191.547L40.3371 213.46C37.9421 214.842 37.9421 217.106 40.3371 218.49L161.593 288.346C163.988 289.723 167.905 289.723 170.301 288.333L273.485 228.631L302.783 211.679C305.174 210.296 305.181 208.026 302.79 206.63L274.253 190.018L181.714 136.158C179.318 134.768 175.369 134.705 172.936 136.019L163.932 140.878C161.493 142.192 158.577 141.2 157.45 138.671L140.944 101.794C139.811 99.2731 141.135 97.5052 143.875 97.8762L216.397 107.68C219.139 108.051 219.415 109.472 217.012 110.843L207.166 116.458C204.76 117.829 204.754 120.079 207.147 121.462L320.678 187.006C328.059 192.426 332.756 200.587 332.756 209.717C332.756 218.922 327.987 227.14 320.507 232.554L207.516 297.424C166.578 321.406 166.578 321.406 125.75 298.179L12.3701 232.272C-2.48993 221.967 -3.39894 206.669 13.3181 198.151Z" fill="white" stroke="white" stroke-miterlimit="10"/>
<path d="M374.316 288.161L369.425 248.916H374.374L377.227 274.07C377.693 278.088 377.926 280.358 377.984 282.921H378.158C379.148 280.476 380.313 277.564 382.467 273.43L394.927 248.916H400.284L379.614 288.161H374.316Z" fill="white"/>
<path d="M416.183 286.53C414.087 287.754 410.651 288.743 406.867 288.743C399.414 288.743 396.153 283.678 396.153 277.447C396.153 268.946 402.442 259.339 411.525 259.339C416.882 259.339 419.794 262.541 419.794 266.559C419.794 273.955 411.467 275.934 401.044 275.759C400.811 276.982 400.986 279.602 401.627 281.115C402.733 283.619 405.004 284.9 407.916 284.9C411.235 284.9 413.739 283.852 415.485 282.921L416.183 286.53ZM410.826 263.123C406.226 263.123 402.791 267.606 401.626 272.032C409.195 272.091 415.135 271.1 415.135 266.733C415.135 264.404 413.388 263.123 410.826 263.123Z" fill="white"/>
<path d="M422.24 288.161L425.676 269.994C426.375 266.326 426.841 262.599 427.132 259.979H431.382C431.149 261.958 430.916 263.938 430.625 266.092H430.8C432.605 262.249 435.633 259.338 439.418 259.338C439.825 259.338 440.408 259.396 440.757 259.454L439.825 264.228C439.534 264.169 439.068 264.112 438.544 264.112C434.352 264.112 430.625 269.177 429.402 275.758L427.073 288.16L422.24 288.161Z" fill="white"/>
<path d="M440.991 283.27C442.33 284.084 444.776 285.016 447.047 285.016C450.308 285.016 452.404 282.92 452.404 280.416C452.404 278.203 451.414 276.864 448.503 275.233C445.242 273.428 443.437 270.924 443.437 268.071C443.437 263.122 447.688 259.338 453.627 259.338C456.189 259.338 458.46 260.036 459.508 260.735L458.169 264.403C457.179 263.821 455.374 263.122 453.278 263.122C450.366 263.122 448.27 264.928 448.27 267.373C448.27 269.411 449.609 270.691 452.113 272.09C455.257 273.895 457.411 276.34 457.411 279.485C457.411 285.424 452.578 288.743 446.639 288.743C443.611 288.743 440.933 287.811 439.652 286.822L440.991 283.27Z" fill="white"/>
<path d="M500.559 259.979L496.774 279.951C496.191 283.096 495.784 285.832 495.493 288.161H491.126L491.883 282.862H491.766C489.263 286.53 485.536 288.801 481.809 288.801C478.199 288.801 474.414 287.054 474.414 280.649C474.414 279.31 474.588 277.796 474.938 275.933L477.966 259.979H482.799L479.829 275.7C479.48 277.272 479.305 278.612 479.305 279.835C479.305 282.746 480.528 284.726 483.847 284.726C487.341 284.726 491.824 280.65 492.989 274.419L495.725 259.98H500.559V259.979Z" fill="white"/>
<path d="M503.706 288.161L507.491 268.189C508.132 265.044 508.481 262.307 508.83 259.979H513.139L512.441 265.51H512.557C515.061 261.55 518.846 259.338 522.98 259.338C526.357 259.338 530.142 261.259 530.142 267.198C530.142 268.421 529.909 270.226 529.618 271.74L526.474 288.16H521.641L524.727 271.915C524.96 270.809 525.135 269.469 525.135 268.305C525.135 265.451 524.029 263.356 520.71 263.356C517.274 263.356 512.383 267.49 511.103 274.477L508.541 288.161H503.706Z" fill="white"/>
<path d="M545.399 288.161L549.184 268.189C549.766 265.044 550.174 262.307 550.465 259.979H554.715L553.959 265.277H554.133C556.754 261.376 560.305 259.339 564.031 259.339C568.341 259.339 570.379 262.075 570.611 265.627C573.115 261.551 576.725 259.397 580.976 259.339C584.236 259.339 587.788 261.435 587.788 266.734C587.788 268.073 587.612 269.936 587.321 271.508L584.177 288.161H579.46L582.488 271.916C582.72 270.867 582.895 269.412 582.895 268.247C582.895 265.277 581.789 263.356 578.644 263.356C575.151 263.356 571.017 267.432 569.852 273.72L567.115 288.16H562.457L565.602 271.623C565.835 270.4 565.952 269.295 565.952 268.188C565.952 265.8 565.311 263.355 561.76 263.355C558.209 263.355 553.841 268.013 552.735 274.01L550.115 288.159H545.399V288.161Z" fill="white"/>
<path d="M619.469 271.1C619.469 279.776 613.297 288.801 603.864 288.801C596.819 288.801 592.86 283.561 592.86 277.213C592.86 267.955 599.323 259.338 608.464 259.338C616.093 259.338 619.469 265.102 619.469 271.1ZM597.867 277.04C597.867 281.64 600.371 284.959 604.505 284.959C610.212 284.959 614.521 277.622 614.521 271.042C614.521 267.781 613.007 263.182 607.941 263.182C601.885 263.181 597.809 270.576 597.867 277.04Z" fill="white"/>
<path d="M622.848 288.161L626.633 268.189C627.274 265.044 627.623 262.307 627.973 259.979H632.282L631.583 265.51H631.7C634.204 261.55 637.988 259.338 642.122 259.338C645.499 259.338 649.284 261.259 649.284 267.198C649.284 268.421 649.052 270.226 648.761 271.74L645.616 288.16H640.783L643.869 271.915C644.102 270.809 644.276 269.469 644.276 268.305C644.276 265.451 643.171 263.356 639.851 263.356C636.415 263.356 631.524 267.49 630.244 274.477L627.682 288.161H622.848Z" fill="white"/>
<path d="M683.932 246.819L677.76 279.252C677.178 282.164 676.711 285.425 676.537 288.161H672.111L672.868 282.571H672.752C670.19 286.589 666.638 288.801 662.62 288.801C657.146 288.801 654.178 284.318 654.178 278.553C654.178 268.537 661.631 259.338 671.588 259.338C673.393 259.338 675.372 259.745 676.595 260.327L679.099 246.818H683.932V246.819ZM675.839 264.404C674.849 263.763 673.219 263.239 671.181 263.239C664.427 263.239 659.186 270.401 659.186 277.913C659.186 281.29 660.351 284.842 664.485 284.842C668.212 284.842 672.695 280.592 673.918 274.245L675.839 264.404Z" fill="white"/>
<path d="M704.839 286.53C702.742 287.754 699.307 288.743 695.523 288.743C688.07 288.743 684.809 283.678 684.809 277.447C684.809 268.946 691.097 259.339 700.181 259.339C705.537 259.339 708.449 262.541 708.449 266.559C708.449 273.955 700.123 275.934 689.7 275.759C689.468 276.982 689.641 279.602 690.282 281.115C691.388 283.619 693.66 284.9 696.571 284.9C699.889 284.9 702.393 283.852 704.14 282.921L704.839 286.53ZM699.481 263.123C694.881 263.123 691.446 267.606 690.281 272.032C697.851 272.091 703.79 271.1 703.79 266.733C703.79 264.404 702.044 263.123 699.481 263.123Z" fill="white"/>
<path d="M718.99 299.69L724.637 269.994C725.22 266.617 725.802 262.832 726.209 259.979H730.635L729.82 265.277H729.936C732.498 261.609 736.225 259.339 740.068 259.339C746.181 259.339 748.744 264.346 748.744 269.528C748.744 279.426 741.64 288.801 732.265 288.801C729.238 288.801 727.257 288.16 726.152 287.52H726.035L723.764 299.69H718.99ZM726.909 283.444C728.132 284.434 729.995 285.016 732.265 285.016C738.495 285.016 743.736 277.272 743.736 269.877C743.736 266.907 742.397 263.356 738.321 263.356C734.537 263.356 729.761 267.723 728.306 275.584L726.909 283.444Z" fill="white"/>
<path d="M752.124 288.161L759.984 246.819H764.817L756.898 288.161H752.124Z" fill="white"/>
<path d="M792.883 259.979L789.099 279.951C788.517 283.096 788.109 285.832 787.818 288.161H783.451L784.208 282.862H784.092C781.588 286.53 777.862 288.801 774.135 288.801C770.525 288.801 766.74 287.054 766.74 280.649C766.74 279.31 766.915 277.796 767.264 275.933L770.291 259.979H775.124L772.154 275.7C771.804 277.272 771.63 278.612 771.63 279.835C771.63 282.746 772.854 284.726 776.172 284.726C779.666 284.726 784.15 280.65 785.314 274.419L788.051 259.98H792.883V259.979Z" fill="white"/>
<path d="M796.262 283.27C797.601 284.084 800.047 285.016 802.318 285.016C805.579 285.016 807.675 282.92 807.675 280.416C807.675 278.203 806.685 276.864 803.774 275.233C800.513 273.428 798.708 270.924 798.708 268.071C798.708 263.122 802.959 259.338 808.898 259.338C811.46 259.338 813.73 260.036 814.779 260.735L813.439 264.403C812.45 263.821 810.644 263.122 808.548 263.122C805.637 263.122 803.54 264.928 803.54 267.373C803.54 269.411 804.88 270.691 807.383 272.09C810.528 273.895 812.682 276.34 812.682 279.485C812.682 285.424 807.849 288.743 801.911 288.743C798.883 288.743 796.204 287.811 794.924 286.822L796.262 283.27Z" fill="white"/>
<path d="M825.844 299.69L831.491 269.994C832.073 266.617 832.656 262.832 833.063 259.979H837.489L836.674 265.277H836.79C839.352 261.609 843.079 259.339 846.922 259.339C853.036 259.339 855.598 264.346 855.598 269.528C855.598 279.426 848.494 288.801 839.119 288.801C836.092 288.801 834.111 288.16 833.005 287.52H832.889L830.618 299.69H825.844ZM833.763 283.444C834.986 284.434 836.849 285.016 839.119 285.016C845.349 285.016 850.59 277.272 850.59 269.877C850.59 266.907 849.251 263.356 845.175 263.356C841.39 263.356 836.615 267.723 835.16 275.584L833.763 283.444Z" fill="white"/>
<path d="M858.92 288.161L862.355 269.994C863.054 266.326 863.52 262.599 863.811 259.979H868.062C867.829 261.958 867.596 263.938 867.305 266.092H867.479C869.285 262.249 872.312 259.338 876.097 259.338C876.504 259.338 877.086 259.396 877.436 259.454L876.504 264.228C876.213 264.169 875.747 264.112 875.223 264.112C871.032 264.112 867.305 269.177 866.081 275.758L863.752 288.16L858.92 288.161Z" fill="white"/>
<path d="M904.105 271.1C904.105 279.776 897.933 288.801 888.501 288.801C881.455 288.801 877.496 283.561 877.496 277.213C877.496 267.955 883.959 259.338 893.1 259.338C900.728 259.338 904.105 265.102 904.105 271.1ZM882.504 277.04C882.504 281.64 885.008 284.959 889.142 284.959C894.848 284.959 899.157 277.622 899.157 271.042C899.157 267.781 897.643 263.182 892.578 263.182C886.521 263.181 882.445 270.576 882.504 277.04Z" fill="white"/>
<path d="M904.981 299.69L910.628 269.994C911.21 266.617 911.793 262.832 912.2 259.979H916.626L915.811 265.277H915.927C918.489 261.609 922.216 259.339 926.059 259.339C932.173 259.339 934.735 264.346 934.735 269.528C934.735 279.426 927.631 288.801 918.256 288.801C915.229 288.801 913.248 288.16 912.142 287.52H912.026L909.755 299.69H904.981ZM912.9 283.444C914.123 284.434 915.986 285.016 918.256 285.016C924.486 285.016 929.727 277.272 929.727 269.877C929.727 266.907 928.388 263.356 924.312 263.356C920.527 263.356 915.752 267.723 914.297 275.584L912.9 283.444Z" fill="white"/>
<path d="M938.056 288.161L941.492 269.994C942.191 266.326 942.657 262.599 942.948 259.979H947.199C946.966 261.958 946.733 263.938 946.441 266.092H946.616C948.422 262.249 951.449 259.338 955.234 259.338C955.641 259.338 956.224 259.396 956.573 259.454L955.641 264.228C955.35 264.169 954.884 264.112 954.361 264.112C950.168 264.112 946.441 269.177 945.218 275.758L942.889 288.16L938.056 288.161Z" fill="white"/>
<path d="M976.547 286.53C974.45 287.754 971.015 288.743 967.231 288.743C959.778 288.743 956.517 283.678 956.517 277.447C956.517 268.946 962.805 259.339 971.889 259.339C977.245 259.339 980.157 262.541 980.157 266.559C980.157 273.955 971.831 275.934 961.408 275.759C961.176 276.982 961.35 279.602 961.99 281.115C963.096 283.619 965.368 284.9 968.279 284.9C971.598 284.9 974.101 283.852 975.848 282.921L976.547 286.53ZM971.189 263.123C966.589 263.123 963.154 267.606 961.989 272.032C969.559 272.091 975.498 271.1 975.498 266.733C975.498 264.404 973.752 263.123 971.189 263.123Z" fill="white"/>
</svg>
